<svg width="129" height="39" viewBox="0 0 129 39" fill="none" xmlns="http://www.w3.org/2000/svg">
<mask id="path-1-outside-1_177_2497" maskUnits="userSpaceOnUse" x="2.70158" y="0.156372" width="124" height="29" fill="black">
<rect fill="white" x="2.70158" y="0.156372" width="124" height="29"/>
<path d="M4.94455 21.1841C4.1692 21.1841 3.56 20.5749 3.56 19.7995V8.64C3.56 7.89234 4.1692 7.28313 4.94455 7.28313C5.69221 7.28313 6.30142 7.89234 6.30142 8.64V19.7995C6.30142 20.5749 5.69221 21.1841 4.94455 21.1841ZM4.94455 4.51402C4.58457 4.51402 4.22459 4.37557 3.97537 4.12635C3.72615 3.87713 3.56 3.51714 3.56 3.15716C3.56 2.79717 3.72615 2.43719 3.97537 2.18797C4.22459 1.93875 4.58457 1.7726 4.94455 1.7726C5.30454 1.7726 5.66452 1.93875 5.91374 2.18797C6.16296 2.43719 6.30142 2.79717 6.30142 3.15716C6.30142 3.51714 6.16296 3.87713 5.91374 4.12635C5.66452 4.37557 5.30454 4.51402 4.94455 4.51402ZM17.3262 7.25544C21.1475 7.25544 24.2766 10.3568 24.2766 14.2059V19.7718C24.2766 20.5472 23.6674 21.1564 22.8921 21.1564C22.1444 21.1564 21.5352 20.5472 21.5352 19.7718V14.2059C21.5352 11.8799 19.6522 9.99686 17.3262 9.99686C15.0001 9.99686 13.1171 11.8799 13.1171 14.2059V19.7718C13.1171 20.5472 12.5079 21.1564 11.7326 21.1564C10.9849 21.1564 10.3757 20.5472 10.3757 19.7718V14.2059C10.3757 10.3568 13.5048 7.25544 17.3262 7.25544ZM35.3405 21.1564C31.5191 21.1564 28.39 18.0273 28.39 14.2059C28.39 10.3568 31.5191 7.25544 35.3405 7.25544C39.1896 7.25544 42.291 10.3568 42.291 14.2059C42.291 18.0273 39.1896 21.1564 35.3405 21.1564ZM35.3405 9.99686C33.0145 9.99686 31.1315 11.8799 31.1315 14.2059C31.1315 16.5043 33.0145 18.415 35.3405 18.415C37.6666 18.415 39.5496 16.5043 39.5496 14.2059C39.5496 11.8799 37.6666 9.99686 35.3405 9.99686ZM55.4711 7.3939C56.191 7.64312 56.551 8.44616 56.2741 9.16613L52.1204 20.2426C51.8989 20.7964 51.3728 21.1564 50.819 21.1564C50.7913 21.1564 50.7913 21.1564 50.7913 21.1564C50.2098 21.1564 49.6836 20.7687 49.4898 20.2426L45.3361 9.16613C45.0592 8.44616 45.4192 7.64312 46.1392 7.3939C46.8591 7.11699 47.6345 7.47697 47.9114 8.19694L50.819 15.9228L53.6988 8.19694C53.9757 7.47697 54.7511 7.11699 55.4711 7.3939ZM61.9666 21.1841C61.1912 21.1841 60.582 20.5749 60.582 19.7995V8.64C60.582 7.89234 61.1912 7.28313 61.9666 7.28313C62.7142 7.28313 63.3234 7.89234 63.3234 8.64V19.7995C63.3234 20.5749 62.7142 21.1841 61.9666 21.1841ZM61.9666 4.51402C61.6066 4.51402 61.2466 4.37557 60.9974 4.12635C60.7482 3.87713 60.582 3.51714 60.582 3.15716C60.582 2.79717 60.7482 2.43719 60.9974 2.18797C61.2466 1.93875 61.6066 1.7726 61.9666 1.7726C62.3266 1.7726 62.6865 1.93875 62.9358 2.18797C63.185 2.43719 63.3234 2.79717 63.3234 3.15716C63.3234 3.51714 63.185 3.87713 62.9358 4.12635C62.6865 4.37557 62.3266 4.51402 61.9666 4.51402ZM74.9392 14.2059L78.5944 18.9411C79.0652 19.5503 78.9544 20.4087 78.3452 20.8518C78.096 21.0456 77.8191 21.1564 77.5145 21.1564C77.0991 21.1564 76.7114 20.9625 76.4345 20.6302L73.1947 16.4489L69.9548 20.6302C69.6779 20.9625 69.2902 21.1564 68.8749 21.1564C68.5703 21.1564 68.2933 21.0456 68.0441 20.8518C67.4349 20.4087 67.3242 19.5503 67.7949 18.9411L71.4501 14.2059L67.7949 9.47073C67.3242 8.86152 67.4349 8.0031 68.0441 7.53235C68.6256 7.0616 69.4841 7.17237 69.9548 7.78157L73.1947 11.9629L76.4345 7.78157C76.9053 7.17237 77.7637 7.0616 78.3452 7.53235C78.9544 8.0031 79.0652 8.86152 78.5944 9.47073L74.9392 14.2059ZM90.0092 21.2671C88.4308 21.2671 86.9632 20.741 85.8002 19.8549V26.75C85.8002 27.4976 85.191 28.1068 84.4433 28.1068C83.668 28.1068 83.0588 27.4976 83.0588 26.75V14.3444V14.3167C83.0588 10.4953 86.1878 7.36621 90.0092 7.36621C93.8583 7.36621 96.9597 10.4953 96.9597 14.3167C96.9597 18.1657 93.8583 21.2671 90.0092 21.2671ZM90.0092 10.1076C87.6832 10.1076 85.8002 11.9906 85.8002 14.3167V14.3444C85.8002 16.6427 87.6832 18.5257 90.0092 18.5257C92.3353 18.5257 94.2183 16.6427 94.2183 14.3167C94.2183 12.0183 92.3353 10.1076 90.0092 10.1076ZM107.997 7.28313C108.773 7.28313 109.382 7.89234 109.382 8.64C109.382 9.38766 108.773 10.0246 107.997 10.0246C105.671 10.0246 103.788 11.9075 103.788 14.2336V19.7995C103.788 20.5472 103.179 21.1841 102.431 21.1841C101.656 21.1841 101.047 20.5472 101.047 19.7995V14.2336C101.047 10.3845 104.176 7.28313 107.997 7.28313ZM118.737 21.1564C114.916 21.1564 111.787 18.0273 111.787 14.2059C111.787 10.3568 114.916 7.25544 118.737 7.25544C122.586 7.25544 125.688 10.3568 125.688 14.2059C125.688 18.0273 122.586 21.1564 118.737 21.1564ZM118.737 9.99686C116.411 9.99686 114.528 11.8799 114.528 14.2059C114.528 16.5043 116.411 18.415 118.737 18.415C121.063 18.415 122.946 16.5043 122.946 14.2059C122.946 11.8799 121.063 9.99686 118.737 9.99686Z"/>
</mask>
<path d="M4.94455 21.1841C4.1692 21.1841 3.56 20.5749 3.56 19.7995V8.64C3.56 7.89234 4.1692 7.28313 4.94455 7.28313C5.69221 7.28313 6.30142 7.89234 6.30142 8.64V19.7995C6.30142 20.5749 5.69221 21.1841 4.94455 21.1841ZM4.94455 4.51402C4.58457 4.51402 4.22459 4.37557 3.97537 4.12635C3.72615 3.87713 3.56 3.51714 3.56 3.15716C3.56 2.79717 3.72615 2.43719 3.97537 2.18797C4.22459 1.93875 4.58457 1.7726 4.94455 1.7726C5.30454 1.7726 5.66452 1.93875 5.91374 2.18797C6.16296 2.43719 6.30142 2.79717 6.30142 3.15716C6.30142 3.51714 6.16296 3.87713 5.91374 4.12635C5.66452 4.37557 5.30454 4.51402 4.94455 4.51402ZM17.3262 7.25544C21.1475 7.25544 24.2766 10.3568 24.2766 14.2059V19.7718C24.2766 20.5472 23.6674 21.1564 22.8921 21.1564C22.1444 21.1564 21.5352 20.5472 21.5352 19.7718V14.2059C21.5352 11.8799 19.6522 9.99686 17.3262 9.99686C15.0001 9.99686 13.1171 11.8799 13.1171 14.2059V19.7718C13.1171 20.5472 12.5079 21.1564 11.7326 21.1564C10.9849 21.1564 10.3757 20.5472 10.3757 19.7718V14.2059C10.3757 10.3568 13.5048 7.25544 17.3262 7.25544ZM35.3405 21.1564C31.5191 21.1564 28.39 18.0273 28.39 14.2059C28.39 10.3568 31.5191 7.25544 35.3405 7.25544C39.1896 7.25544 42.291 10.3568 42.291 14.2059C42.291 18.0273 39.1896 21.1564 35.3405 21.1564ZM35.3405 9.99686C33.0145 9.99686 31.1315 11.8799 31.1315 14.2059C31.1315 16.5043 33.0145 18.415 35.3405 18.415C37.6666 18.415 39.5496 16.5043 39.5496 14.2059C39.5496 11.8799 37.6666 9.99686 35.3405 9.99686ZM55.4711 7.3939C56.191 7.64312 56.551 8.44616 56.2741 9.16613L52.1204 20.2426C51.8989 20.7964 51.3728 21.1564 50.819 21.1564C50.7913 21.1564 50.7913 21.1564 50.7913 21.1564C50.2098 21.1564 49.6836 20.7687 49.4898 20.2426L45.3361 9.16613C45.0592 8.44616 45.4192 7.64312 46.1392 7.3939C46.8591 7.11699 47.6345 7.47697 47.9114 8.19694L50.819 15.9228L53.6988 8.19694C53.9757 7.47697 54.7511 7.11699 55.4711 7.3939ZM61.9666 21.1841C61.1912 21.1841 60.582 20.5749 60.582 19.7995V8.64C60.582 7.89234 61.1912 7.28313 61.9666 7.28313C62.7142 7.28313 63.3234 7.89234 63.3234 8.64V19.7995C63.3234 20.5749 62.7142 21.1841 61.9666 21.1841ZM61.9666 4.51402C61.6066 4.51402 61.2466 4.37557 60.9974 4.12635C60.7482 3.87713 60.582 3.51714 60.582 3.15716C60.582 2.79717 60.7482 2.43719 60.9974 2.18797C61.2466 1.93875 61.6066 1.7726 61.9666 1.7726C62.3266 1.7726 62.6865 1.93875 62.9358 2.18797C63.185 2.43719 63.3234 2.79717 63.3234 3.15716C63.3234 3.51714 63.185 3.87713 62.9358 4.12635C62.6865 4.37557 62.3266 4.51402 61.9666 4.51402ZM74.9392 14.2059L78.5944 18.9411C79.0652 19.5503 78.9544 20.4087 78.3452 20.8518C78.096 21.0456 77.8191 21.1564 77.5145 21.1564C77.0991 21.1564 76.7114 20.9625 76.4345 20.6302L73.1947 16.4489L69.9548 20.6302C69.6779 20.9625 69.2902 21.1564 68.8749 21.1564C68.5703 21.1564 68.2933 21.0456 68.0441 20.8518C67.4349 20.4087 67.3242 19.5503 67.7949 18.9411L71.4501 14.2059L67.7949 9.47073C67.3242 8.86152 67.4349 8.0031 68.0441 7.53235C68.6256 7.0616 69.4841 7.17237 69.9548 7.78157L73.1947 11.9629L76.4345 7.78157C76.9053 7.17237 77.7637 7.0616 78.3452 7.53235C78.9544 8.0031 79.0652 8.86152 78.5944 9.47073L74.9392 14.2059ZM90.0092 21.2671C88.4308 21.2671 86.9632 20.741 85.8002 19.8549V26.75C85.8002 27.4976 85.191 28.1068 84.4433 28.1068C83.668 28.1068 83.0588 27.4976 83.0588 26.75V14.3444V14.3167C83.0588 10.4953 86.1878 7.36621 90.0092 7.36621C93.8583 7.36621 96.9597 10.4953 96.9597 14.3167C96.9597 18.1657 93.8583 21.2671 90.0092 21.2671ZM90.0092 10.1076C87.6832 10.1076 85.8002 11.9906 85.8002 14.3167V14.3444C85.8002 16.6427 87.6832 18.5257 90.0092 18.5257C92.3353 18.5257 94.2183 16.6427 94.2183 14.3167C94.2183 12.0183 92.3353 10.1076 90.0092 10.1076ZM107.997 7.28313C108.773 7.28313 109.382 7.89234 109.382 8.64C109.382 9.38766 108.773 10.0246 107.997 10.0246C105.671 10.0246 103.788 11.9075 103.788 14.2336V19.7995C103.788 20.5472 103.179 21.1841 102.431 21.1841C101.656 21.1841 101.047 20.5472 101.047 19.7995V14.2336C101.047 10.3845 104.176 7.28313 107.997 7.28313ZM118.737 21.1564C114.916 21.1564 111.787 18.0273 111.787 14.2059C111.787 10.3568 114.916 7.25544 118.737 7.25544C122.586 7.25544 125.688 10.3568 125.688 14.2059C125.688 18.0273 122.586 21.1564 118.737 21.1564ZM118.737 9.99686C116.411 9.99686 114.528 11.8799 114.528 14.2059C114.528 16.5043 116.411 18.415 118.737 18.415C121.063 18.415 122.946 16.5043 122.946 14.2059C122.946 11.8799 121.063 9.99686 118.737 9.99686Z" fill="white"/>
<path d="M3.97537 4.12635L4.45294 3.64877H4.45294L3.97537 4.12635ZM3.97537 2.18797L3.49779 1.71039L3.49779 1.7104L3.97537 2.18797ZM5.91374 2.18797L6.39132 1.7104L6.39132 1.71039L5.91374 2.18797ZM4.94456 20.5087C4.54221 20.5087 4.23539 20.2019 4.23539 19.7995H2.88461C2.88461 20.9479 3.7962 21.8595 4.94456 21.8595V20.5087ZM4.23539 19.7995V8.64H2.88461V19.7995H4.23539ZM4.23539 8.64C4.23539 8.27422 4.53328 7.95852 4.94456 7.95852V6.60774C3.80513 6.60774 2.88461 7.51045 2.88461 8.64H4.23539ZM4.94456 7.95852C5.31921 7.95852 5.62603 8.26535 5.62603 8.64H6.97681C6.97681 7.51933 6.06522 6.60774 4.94456 6.60774V7.95852ZM5.62603 8.64V19.7995H6.97681V8.64H5.62603ZM5.62603 19.7995C5.62603 20.2108 5.31033 20.5087 4.94456 20.5087V21.8595C6.0741 21.8595 6.97681 20.9389 6.97681 19.7995H5.62603ZM4.94456 3.83863C4.74801 3.83863 4.56483 3.76066 4.45294 3.64877L3.49779 4.60392C3.88435 4.99048 4.42113 5.18942 4.94456 5.18942V3.83863ZM4.45294 3.64877C4.31647 3.51231 4.23539 3.31926 4.23539 3.15716H2.88461C2.88461 3.71502 3.13582 4.24195 3.49779 4.60392L4.45294 3.64877ZM4.23539 3.15716C4.23539 2.99505 4.31647 2.80201 4.45294 2.66554L3.49779 1.7104C3.13582 2.07237 2.88461 2.59929 2.88461 3.15716H4.23539ZM4.45294 2.66555C4.58941 2.52908 4.78245 2.448 4.94456 2.448V1.09721C4.38669 1.09721 3.85976 1.34843 3.49779 1.71039L4.45294 2.66555ZM4.94456 2.448C5.10666 2.448 5.2997 2.52908 5.43617 2.66555L6.39132 1.71039C6.02935 1.34843 5.50242 1.09721 4.94456 1.09721V2.448ZM5.43617 2.66554C5.54805 2.77743 5.62603 2.96062 5.62603 3.15716H6.97681C6.97681 2.63373 6.77787 2.09695 6.39132 1.7104L5.43617 2.66554ZM5.62603 3.15716C5.62603 3.3537 5.54805 3.53689 5.43617 3.64877L6.39132 4.60392C6.77787 4.21737 6.97681 3.68059 6.97681 3.15716H5.62603ZM5.43617 3.64877C5.32428 3.76066 5.1411 3.83863 4.94456 3.83863V5.18942C5.46798 5.18942 6.00476 4.99048 6.39132 4.60392L5.43617 3.64877ZM17.3262 7.93083C20.7763 7.93083 23.6012 10.7316 23.6012 14.2059H24.952C24.952 9.98209 21.5188 6.58005 17.3262 6.58005V7.93083ZM23.6012 14.2059V19.7718H24.952V14.2059H23.6012ZM23.6012 19.7718C23.6012 20.1742 23.2944 20.481 22.8921 20.481V21.8318C24.0404 21.8318 24.952 20.9202 24.952 19.7718H23.6012ZM22.8921 20.481C22.5263 20.481 22.2106 20.1831 22.2106 19.7718H20.8598C20.8598 20.9112 21.7625 21.8318 22.8921 21.8318V20.481ZM22.2106 19.7718V14.2059H20.8598V19.7718H22.2106ZM22.2106 14.2059C22.2106 11.5068 20.0252 9.32147 17.3262 9.32147V10.6723C19.2792 10.6723 20.8598 12.2529 20.8598 14.2059H22.2106ZM17.3262 9.32147C14.6271 9.32147 12.4417 11.5068 12.4417 14.2059H13.7925C13.7925 12.2529 15.3731 10.6723 17.3262 10.6723V9.32147ZM12.4417 14.2059V19.7718H13.7925V14.2059H12.4417ZM12.4417 19.7718C12.4417 20.1742 12.1349 20.481 11.7326 20.481V21.8318C12.8809 21.8318 13.7925 20.9202 13.7925 19.7718H12.4417ZM11.7326 20.481C11.3668 20.481 11.0511 20.1831 11.0511 19.7718H9.70029C9.70029 20.9112 10.603 21.8318 11.7326 21.8318V20.481ZM11.0511 19.7718V14.2059H9.70029V19.7718H11.0511ZM11.0511 14.2059C11.0511 10.7316 13.876 7.93083 17.3262 7.93083V6.58005C13.1335 6.58005 9.70029 9.98209 9.70029 14.2059H11.0511ZM35.3405 20.481C31.8921 20.481 29.0654 17.6543 29.0654 14.2059H27.7147C27.7147 18.4003 31.1461 21.8318 35.3405 21.8318V20.481ZM29.0654 14.2059C29.0654 10.7316 31.8904 7.93083 35.3405 7.93083V6.58005C31.1479 6.58005 27.7147 9.98209 27.7147 14.2059H29.0654ZM35.3405 7.93083C38.8166 7.93083 41.6156 10.7299 41.6156 14.2059H42.9664C42.9664 9.98384 39.5626 6.58005 35.3405 6.58005V7.93083ZM41.6156 14.2059C41.6156 17.656 38.8148 20.481 35.3405 20.481V21.8318C39.5643 21.8318 42.9664 18.3985 42.9664 14.2059H41.6156ZM35.3405 9.32147C32.6414 9.32147 30.4561 11.5068 30.4561 14.2059H31.8069C31.8069 12.2529 33.3875 10.6723 35.3405 10.6723V9.32147ZM30.4561 14.2059C30.4561 16.8744 32.6386 19.0903 35.3405 19.0903V17.7396C33.3904 17.7396 31.8069 16.1341 31.8069 14.2059H30.4561ZM35.3405 19.0903C38.0425 19.0903 40.2249 16.8744 40.2249 14.2059H38.8742C38.8742 16.1341 37.2907 17.7396 35.3405 17.7396V19.0903ZM40.2249 14.2059C40.2249 11.5068 38.0396 9.32147 35.3405 9.32147V10.6723C37.2936 10.6723 38.8742 12.2529 38.8742 14.2059H40.2249ZM55.4711 7.3939L55.2286 8.02427L55.2393 8.02839L55.2501 8.03213L55.4711 7.3939ZM56.2741 9.16613L55.6437 8.92367L55.6417 8.92898L56.2741 9.16613ZM52.1204 20.2426L52.7475 20.4934L52.7503 20.4866L52.7528 20.4797L52.1204 20.2426ZM49.4898 20.2426L50.1236 20.0091L50.1222 20.0054L49.4898 20.2426ZM45.3361 9.16613L45.9685 8.92897L45.9665 8.92368L45.3361 9.16613ZM46.1392 7.3939L46.3601 8.03213L46.3709 8.02839L46.3816 8.02427L46.1392 7.3939ZM47.9114 8.19694L48.5435 7.95904L48.5418 7.95449L47.9114 8.19694ZM50.819 15.9228L50.1869 16.1606L50.822 17.8483L51.4518 16.1587L50.819 15.9228ZM53.6988 8.19694L53.0684 7.95447L53.066 7.96104L53.6988 8.19694ZM55.2501 8.03213C55.5957 8.15177 55.7887 8.54687 55.6437 8.92367L56.9045 9.40858C57.3134 8.34545 56.7863 7.13447 55.692 6.75566L55.2501 8.03213ZM55.6417 8.92898L51.4881 20.0054L52.7528 20.4797L56.9065 9.40327L55.6417 8.92898ZM51.4934 19.9917C51.3689 20.3029 51.082 20.481 50.819 20.481V21.8318C51.6635 21.8318 52.429 21.2898 52.7475 20.4934L51.4934 19.9917ZM50.819 20.481C50.8189 20.481 50.8189 20.481 50.8188 20.481C50.8187 20.481 50.8187 20.481 50.8186 20.481C50.8186 20.481 50.8185 20.481 50.8185 20.481C50.8184 20.481 50.8184 20.481 50.8183 20.481C50.8183 20.481 50.8182 20.481 50.8182 20.481C50.8181 20.481 50.8181 20.481 50.818 20.481C50.8179 20.481 50.8179 20.481 50.8178 20.481C50.8178 20.481 50.8177 20.481 50.8177 20.481C50.8176 20.481 50.8176 20.481 50.8175 20.481C50.8175 20.481 50.8174 20.481 50.8174 20.481C50.8173 20.481 50.8173 20.481 50.8172 20.481C50.8172 20.481 50.8171 20.481 50.8171 20.481C50.817 20.481 50.817 20.481 50.8169 20.481C50.8169 20.481 50.8168 20.481 50.8168 20.481C50.8167 20.481 50.8167 20.481 50.8166 20.481C50.8165 20.481 50.8165 20.481 50.8164 20.481C50.8164 20.481 50.8163 20.481 50.8163 20.481C50.8162 20.481 50.8162 20.481 50.8161 20.481C50.8161 20.481 50.816 20.481 50.816 20.481C50.8159 20.481 50.8159 20.481 50.8158 20.481C50.8158 20.481 50.8157 20.481 50.8157 20.481C50.8156 20.481 50.8156 20.481 50.8155 20.481C50.8155 20.481 50.8154 20.481 50.8154 20.481C50.8153 20.481 50.8153 20.481 50.8152 20.481C50.8152 20.481 50.8152 20.481 50.8151 20.481C50.8151 20.481 50.815 20.481 50.815 20.481C50.8149 20.481 50.8149 20.481 50.8148 20.481C50.8148 20.481 50.8147 20.481 50.8147 20.481C50.8146 20.481 50.8146 20.481 50.8145 20.481C50.8145 20.481 50.8144 20.481 50.8144 20.481C50.8143 20.481 50.8143 20.481 50.8142 20.481C50.8142 20.481 50.8141 20.481 50.8141 20.481C50.814 20.481 50.814 20.481 50.8139 20.481C50.8139 20.481 50.8139 20.481 50.8138 20.481C50.8138 20.481 50.8137 20.481 50.8137 20.481C50.8136 20.481 50.8136 20.481 50.8135 20.481C50.8135 20.481 50.8134 20.481 50.8134 20.481C50.8133 20.481 50.8133 20.481 50.8132 20.481C50.8132 20.481 50.8132 20.481 50.8131 20.481C50.8131 20.481 50.813 20.481 50.813 20.481C50.8129 20.481 50.8129 20.481 50.8128 20.481C50.8128 20.481 50.8127 20.481 50.8127 20.481C50.8126 20.481 50.8126 20.481 50.8126 20.481C50.8125 20.481 50.8125 20.481 50.8124 20.481C50.8124 20.481 50.8123 20.481 50.8123 20.481C50.8122 20.481 50.8122 20.481 50.8121 20.481C50.8121 20.481 50.8121 20.481 50.812 20.481C50.812 20.481 50.8119 20.481 50.8119 20.481C50.8118 20.481 50.8118 20.481 50.8117 20.481C50.8117 20.481 50.8117 20.481 50.8116 20.481C50.8116 20.481 50.8115 20.481 50.8115 20.481C50.8114 20.481 50.8114 20.481 50.8114 20.481C50.8113 20.481 50.8113 20.481 50.8112 20.481C50.8112 20.481 50.8111 20.481 50.8111 20.481C50.8111 20.481 50.811 20.481 50.811 20.481C50.8109 20.481 50.8109 20.481 50.8108 20.481C50.8108 20.481 50.8107 20.481 50.8107 20.481C50.8107 20.481 50.8106 20.481 50.8106 20.481C50.8105 20.481 50.8105 20.481 50.8105 20.481C50.8104 20.481 50.8104 20.481 50.8103 20.481C50.8103 20.481 50.8102 20.481 50.8102 20.481C50.8102 20.481 50.8101 20.481 50.8101 20.481C50.81 20.481 50.81 20.481 50.8099 20.481C50.8099 20.481 50.8099 20.481 50.8098 20.481C50.8098 20.481 50.8097 20.481 50.8097 20.481C50.8097 20.481 50.8096 20.481 50.8096 20.481C50.8095 20.481 50.8095 20.481 50.8095 20.481C50.8094 20.481 50.8094 20.481 50.8093 20.481C50.8093 20.481 50.8092 20.481 50.8092 20.481C50.8092 20.481 50.8091 20.481 50.8091 20.481C50.809 20.481 50.809 20.481 50.809 20.481C50.8089 20.481 50.8089 20.481 50.8088 20.481C50.8088 20.481 50.8088 20.481 50.8087 20.481C50.8087 20.481 50.8086 20.481 50.8086 20.481C50.8086 20.481 50.8085 20.481 50.8085 20.481C50.8084 20.481 50.8084 20.481 50.8084 20.481C50.8083 20.481 50.8083 20.481 50.8083 20.481C50.8082 20.481 50.8082 20.481 50.8081 20.481C50.8081 20.481 50.8081 20.481 50.808 20.481C50.808 20.481 50.8079 20.481 50.8079 20.481C50.8079 20.481 50.8078 20.481 50.8078 20.481C50.8078 20.481 50.8077 20.481 50.8077 20.481C50.8076 20.481 50.8076 20.481 50.8076 20.481C50.8075 20.481 50.8075 20.481 50.8074 20.481C50.8074 20.481 50.8074 20.481 50.8073 20.481C50.8073 20.481 50.8073 20.481 50.8072 20.481C50.8072 20.481 50.8071 20.481 50.8071 20.481C50.8071 20.481 50.807 20.481 50.807 20.481C50.807 20.481 50.8069 20.481 50.8069 20.481C50.8069 20.481 50.8068 20.481 50.8068 20.481C50.8067 20.481 50.8067 20.481 50.8067 20.481C50.8066 20.481 50.8066 20.481 50.8066 20.481C50.8065 20.481 50.8065 20.481 50.8064 20.481C50.8064 20.481 50.8064 20.481 50.8063 20.481C50.8063 20.481 50.8063 20.481 50.8062 20.481C50.8062 20.481 50.8062 20.481 50.8061 20.481C50.8061 20.481 50.8061 20.481 50.806 20.481C50.806 20.481 50.8059 20.481 50.8059 20.481C50.8059 20.481 50.8058 20.481 50.8058 20.481C50.8058 20.481 50.8057 20.481 50.8057 20.481C50.8057 20.481 50.8056 20.481 50.8056 20.481C50.8056 20.481 50.8055 20.481 50.8055 20.481C50.8055 20.481 50.8054 20.481 50.8054 20.481C50.8054 20.481 50.8053 20.481 50.8053 20.481C50.8052 20.481 50.8052 20.481 50.8052 20.481C50.8051 20.481 50.8051 20.481 50.8051 20.481C50.805 20.481 50.805 20.481 50.805 20.481C50.8049 20.481 50.8049 20.481 50.8049 20.481C50.8048 20.481 50.8048 20.481 50.8048 20.481C50.8047 20.481 50.8047 20.481 50.8047 20.481C50.8046 20.481 50.8046 20.481 50.8046 20.481C50.8045 20.481 50.8045 20.481 50.8045 20.481C50.8044 20.481 50.8044 20.481 50.8044 20.481C50.8043 20.481 50.8043 20.481 50.8043 20.481C50.8042 20.481 50.8042 20.481 50.8042 20.481C50.8041 20.481 50.8041 20.481 50.8041 20.481C50.8041 20.481 50.804 20.481 50.804 20.481C50.804 20.481 50.8039 20.481 50.8039 20.481C50.8039 20.481 50.8038 20.481 50.8038 20.481C50.8038 20.481 50.8037 20.481 50.8037 20.481C50.8037 20.481 50.8036 20.481 50.8036 20.481C50.8036 20.481 50.8035 20.481 50.8035 20.481C50.8035 20.481 50.8034 20.481 50.8034 20.481C50.8034 20.481 50.8034 20.481 50.8033 20.481C50.8033 20.481 50.8033 20.481 50.8032 20.481C50.8032 20.481 50.8032 20.481 50.8031 20.481C50.8031 20.481 50.8031 20.481 50.803 20.481C50.803 20.481 50.803 20.481 50.803 20.481C50.8029 20.481 50.8029 20.481 50.8029 20.481C50.8028 20.481 50.8028 20.481 50.8028 20.481C50.8027 20.481 50.8027 20.481 50.8027 20.481C50.8027 20.481 50.8026 20.481 50.8026 20.481C50.8026 20.481 50.8025 20.481 50.8025 20.481C50.8025 20.481 50.8024 20.481 50.8024 20.481C50.8024 20.481 50.8024 20.481 50.8023 20.481C50.8023 20.481 50.8023 20.481 50.8022 20.481C50.8022 20.481 50.8022 20.481 50.8022 20.481C50.8021 20.481 50.8021 20.481 50.8021 20.481C50.802 20.481 50.802 20.481 50.802 20.481C50.8019 20.481 50.8019 20.481 50.8019 20.481C50.8019 20.481 50.8018 20.481 50.8018 20.481C50.8018 20.481 50.8018 20.481 50.8017 20.481C50.8017 20.481 50.8017 20.481 50.8016 20.481C50.8016 20.481 50.8016 20.481 50.8016 20.481C50.8015 20.481 50.8015 20.481 50.8015 20.481C50.8014 20.481 50.8014 20.481 50.8014 20.481C50.8014 20.481 50.8013 20.481 50.8013 20.481C50.8013 20.481 50.8013 20.481 50.8012 20.481C50.8012 20.481 50.8012 20.481 50.8011 20.481C50.8011 20.481 50.8011 20.481 50.8011 20.481C50.801 20.481 50.801 20.481 50.801 20.481C50.8009 20.481 50.8009 20.481 50.8009 20.481C50.8009 20.481 50.8008 20.481 50.8008 20.481C50.8008 20.481 50.8008 20.481 50.8007 20.481C50.8007 20.481 50.8007 20.481 50.8007 20.481C50.8006 20.481 50.8006 20.481 50.8006 20.481C50.8006 20.481 50.8005 20.481 50.8005 20.481C50.8005 20.481 50.8004 20.481 50.8004 20.481C50.8004 20.481 50.8004 20.481 50.8003 20.481C50.8003 20.481 50.8003 20.481 50.8003 20.481C50.8002 20.481 50.8002 20.481 50.8002 20.481C50.8002 20.481 50.8001 20.481 50.8001 20.481C50.8001 20.481 50.8001 20.481 50.8 20.481C50.8 20.481 50.8 20.481 50.8 20.481C50.7999 20.481 50.7999 20.481 50.7999 20.481C50.7999 20.481 50.7998 20.481 50.7998 20.481C50.7998 20.481 50.7998 20.481 50.7997 20.481C50.7997 20.481 50.7997 20.481 50.7997 20.481C50.7996 20.481 50.7996 20.481 50.7996 20.481C50.7996 20.481 50.7995 20.481 50.7995 20.481C50.7995 20.481 50.7995 20.481 50.7995 20.481C50.7994 20.481 50.7994 20.481 50.7994 20.481C50.7994 20.481 50.7993 20.481 50.7993 20.481C50.7993 20.481 50.7993 20.481 50.7992 20.481C50.7992 20.481 50.7992 20.481 50.7992 20.481C50.7991 20.481 50.7991 20.481 50.7991 20.481C50.7991 20.481 50.799 20.481 50.799 20.481C50.799 20.481 50.799 20.481 50.799 20.481C50.7989 20.481 50.7989 20.481 50.7989 20.481C50.7989 20.481 50.7988 20.481 50.7988 20.481C50.7988 20.481 50.7988 20.481 50.7988 20.481C50.7987 20.481 50.7987 20.481 50.7987 20.481C50.7987 20.481 50.7986 20.481 50.7986 20.481C50.7986 20.481 50.7986 20.481 50.7986 20.481C50.7985 20.481 50.7985 20.481 50.7985 20.481C50.7985 20.481 50.7984 20.481 50.7984 20.481C50.7984 20.481 50.7984 20.481 50.7984 20.481C50.7983 20.481 50.7983 20.481 50.7983 20.481C50.7983 20.481 50.7982 20.481 50.7982 20.481C50.7982 20.481 50.7982 20.481 50.7982 20.481C50.7981 20.481 50.7981 20.481 50.7981 20.481C50.7981 20.481 50.7981 20.481 50.798 20.481C50.798 20.481 50.798 20.481 50.798 20.481C50.7979 20.481 50.7979 20.481 50.7979 20.481C50.7979 20.481 50.7979 20.481 50.7978 20.481C50.7978 20.481 50.7978 20.481 50.7978 20.481C50.7978 20.481 50.7977 20.481 50.7977 20.481C50.7977 20.481 50.7977 20.481 50.7977 20.481C50.7976 20.481 50.7976 20.481 50.7976 20.481C50.7976 20.481 50.7976 20.481 50.7975 20.481C50.7975 20.481 50.7975 20.481 50.7975 20.481C50.7975 20.481 50.7974 20.481 50.7974 20.481C50.7974 20.481 50.7974 20.481 50.7974 20.481C50.7973 20.481 50.7973 20.481 50.7973 20.481C50.7973 20.481 50.7973 20.481 50.7972 20.481C50.7972 20.481 50.7972 20.481 50.7972 20.481C50.7972 20.481 50.7971 20.481 50.7971 20.481C50.7971 20.481 50.7971 20.481 50.7971 20.481C50.7971 20.481 50.797 20.481 50.797 20.481C50.797 20.481 50.797 20.481 50.797 20.481C50.7969 20.481 50.7969 20.481 50.7969 20.481C50.7969 20.481 50.7969 20.481 50.7968 20.481C50.7968 20.481 50.7968 20.481 50.7968 20.481C50.7968 20.481 50.7967 20.481 50.7967 20.481C50.7967 20.481 50.7967 20.481 50.7967 20.481C50.7967 20.481 50.7966 20.481 50.7966 20.481C50.7966 20.481 50.7966 20.481 50.7966 20.481C50.7966 20.481 50.7965 20.481 50.7965 20.481C50.7965 20.481 50.7965 20.481 50.7965 20.481C50.7964 20.481 50.7964 20.481 50.7964 20.481C50.7964 20.481 50.7964 20.481 50.7964 20.481C50.7963 20.481 50.7963 20.481 50.7963 20.481C50.7963 20.481 50.7963 20.481 50.7963 20.481C50.7962 20.481 50.7962 20.481 50.7962 20.481C50.7962 20.481 50.7962 20.481 50.7962 20.481C50.7961 20.481 50.7961 20.481 50.7961 20.481C50.7961 20.481 50.7961 20.481 50.796 20.481C50.796 20.481 50.796 20.481 50.796 20.481C50.796 20.481 50.796 20.481 50.7959 20.481C50.7959 20.481 50.7959 20.481 50.7959 20.481C50.7959 20.481 50.7959 20.481 50.7958 20.481C50.7958 20.481 50.7958 20.481 50.7958 20.481C50.7958 20.481 50.7958 20.481 50.7958 20.481C50.7957 20.481 50.7957 20.481 50.7957 20.481C50.7957 20.481 50.7957 20.481 50.7957 20.481C50.7956 20.481 50.7956 20.481 50.7956 20.481C50.7956 20.481 50.7956 20.481 50.7956 20.481C50.7955 20.481 50.7955 20.481 50.7955 20.481C50.7955 20.481 50.7955 20.481 50.7955 20.481C50.7955 20.481 50.7954 20.481 50.7954 20.481C50.7954 20.481 50.7954 20.481 50.7954 20.481C50.7954 20.481 50.7953 20.481 50.7953 20.481C50.7953 20.481 50.7953 20.481 50.7953 20.481C50.7953 20.481 50.7953 20.481 50.7952 20.481C50.7952 20.481 50.7952 20.481 50.7952 20.481C50.7952 20.481 50.7952 20.481 50.7952 20.481C50.7951 20.481 50.7951 20.481 50.7951 20.481C50.7951 20.481 50.7951 20.481 50.7951 20.481C50.7951 20.481 50.795 20.481 50.795 20.481C50.795 20.481 50.795 20.481 50.795 20.481C50.795 20.481 50.795 20.481 50.7949 20.481C50.7949 20.481 50.7949 20.481 50.7949 20.481C50.7949 20.481 50.7949 20.481 50.7949 20.481C50.7948 20.481 50.7948 20.481 50.7948 20.481C50.7948 20.481 50.7948 20.481 50.7948 20.481C50.7948 20.481 50.7947 20.481 50.7947 20.481C50.7947 20.481 50.7947 20.481 50.7947 20.481C50.7947 20.481 50.7947 20.481 50.7947 20.481C50.7946 20.481 50.7946 20.481 50.7946 20.481C50.7946 20.481 50.7946 20.481 50.7946 20.481C50.7946 20.481 50.7945 20.481 50.7945 20.481C50.7945 20.481 50.7945 20.481 50.7945 20.481C50.7945 20.481 50.7945 20.481 50.7945 20.481C50.7944 20.481 50.7944 20.481 50.7944 20.481C50.7944 20.481 50.7944 20.481 50.7944 20.481C50.7944 20.481 50.7944 20.481 50.7943 20.481C50.7943 20.481 50.7943 20.481 50.7943 20.481C50.7943 20.481 50.7943 20.481 50.7943 20.481C50.7943 20.481 50.7942 20.481 50.7942 20.481C50.7942 20.481 50.7942 20.481 50.7942 20.481C50.7942 20.481 50.7942 20.481 50.7942 20.481C50.7941 20.481 50.7941 20.481 50.7941 20.481C50.7941 20.481 50.7941 20.481 50.7941 20.481C50.7941 20.481 50.7941 20.481 50.7941 20.481C50.794 20.481 50.794 20.481 50.794 20.481C50.794 20.481 50.794 20.481 50.794 20.481C50.794 20.481 50.794 20.481 50.7939 20.481C50.7939 20.481 50.7939 20.481 50.7939 20.481C50.7939 20.481 50.7939 20.481 50.7939 20.481C50.7939 20.481 50.7939 20.481 50.7938 20.481C50.7938 20.481 50.7938 20.481 50.7938 20.481C50.7938 20.481 50.7938 20.481 50.7938 20.481C50.7938 20.481 50.7938 20.481 50.7938 20.481C50.7937 20.481 50.7937 20.481 50.7937 20.481C50.7937 20.481 50.7937 20.481 50.7937 20.481C50.7937 20.481 50.7937 20.481 50.7937 20.481C50.7936 20.481 50.7936 20.481 50.7936 20.481C50.7936 20.481 50.7936 20.481 50.7936 20.481C50.7936 20.481 50.7936 20.481 50.7936 20.481C50.7935 20.481 50.7935 20.481 50.7935 20.481C50.7935 20.481 50.7935 20.481 50.7935 20.481C50.7935 20.481 50.7935 20.481 50.7935 20.481C50.7935 20.481 50.7934 20.481 50.7934 20.481C50.7934 20.481 50.7934 20.481 50.7934 20.481C50.7934 20.481 50.7934 20.481 50.7934 20.481C50.7934 20.481 50.7934 20.481 50.7934 20.481C50.7933 20.481 50.7933 20.481 50.7933 20.481C50.7933 20.481 50.7933 20.481 50.7933 20.481C50.7933 20.481 50.7933 20.481 50.7933 20.481C50.7933 20.481 50.7932 20.481 50.7932 20.481C50.7932 20.481 50.7932 20.481 50.7932 20.481C50.7932 20.481 50.7932 20.481 50.7932 20.481C50.7932 20.481 50.7932 20.481 50.7932 20.481C50.7931 20.481 50.7931 20.481 50.7931 20.481C50.7931 20.481 50.7931 20.481 50.7931 20.481C50.7931 20.481 50.7931 20.481 50.7931 20.481C50.7931 20.481 50.7931 20.481 50.793 20.481C50.793 20.481 50.793 20.481 50.793 20.481C50.793 20.481 50.793 20.481 50.793 20.481C50.793 20.481 50.793 20.481 50.793 20.481C50.793 20.481 50.793 20.481 50.7929 20.481C50.7929 20.481 50.7929 20.481 50.7929 20.481C50.7929 20.481 50.7929 20.481 50.7929 20.481C50.7929 20.481 50.7929 20.481 50.7929 20.481C50.7929 20.481 50.7929 20.481 50.7929 20.481C50.7928 20.481 50.7928 20.481 50.7928 20.481C50.7928 20.481 50.7928 20.481 50.7928 20.481C50.7928 20.481 50.7928 20.481 50.7928 20.481C50.7928 20.481 50.7928 20.481 50.7928 20.481C50.7927 20.481 50.7927 20.481 50.7927 20.481C50.7927 20.481 50.7927 20.481 50.7927 20.481C50.7927 20.481 50.7927 20.481 50.7927 20.481C50.7927 20.481 50.7927 20.481 50.7927 20.481C50.7927 20.481 50.7926 20.481 50.7926 20.481C50.7926 20.481 50.7926 20.481 50.7926 20.481C50.7926 20.481 50.7926 20.481 50.7926 20.481C50.7926 20.481 50.7926 20.481 50.7926 20.481C50.7926 20.481 50.7926 20.481 50.7926 20.481C50.7925 20.481 50.7925 20.481 50.7925 20.481C50.7925 20.481 50.7925 20.481 50.7925 20.481C50.7925 20.481 50.7925 20.481 50.7925 20.481C50.7925 20.481 50.7925 20.481 50.7925 20.481C50.7925 20.481 50.7925 20.481 50.7925 20.481C50.7924 20.481 50.7924 20.481 50.7924 20.481C50.7924 20.481 50.7924 20.481 50.7924 20.481C50.7924 20.481 50.7924 20.481 50.7924 20.481C50.7924 20.481 50.7924 20.481 50.7924 20.481C50.7924 20.481 50.7924 20.481 50.7924 20.481C50.7924 20.481 50.7923 20.481 50.7923 20.481C50.7923 20.481 50.7923 20.481 50.7923 20.481C50.7923 20.481 50.7923 20.481 50.7923 20.481C50.7923 20.481 50.7923 20.481 50.7923 20.481C50.7923 20.481 50.7923 20.481 50.7923 20.481C50.7923 20.481 50.7923 20.481 50.7923 20.481C50.7922 20.481 50.7922 20.481 50.7922 20.481C50.7922 20.481 50.7922 20.481 50.7922 20.481C50.7922 20.481 50.7922 20.481 50.7922 20.481C50.7922 20.481 50.7922 20.481 50.7922 20.481C50.7922 20.481 50.7922 20.481 50.7922 20.481C50.7922 20.481 50.7922 20.481 50.7921 20.481C50.7921 20.481 50.7921 20.481 50.7921 20.481C50.7921 20.481 50.7921 20.481 50.7921 20.481C50.7921 20.481 50.7921 20.481 50.7921 20.481C50.7921 20.481 50.7921 20.481 50.7921 20.481C50.7921 20.481 50.7921 20.481 50.7921 20.481C50.7921 20.481 50.7921 20.481 50.7921 20.481C50.792 20.481 50.792 20.481 50.792 20.481C50.792 20.481 50.792 20.481 50.792 20.481C50.792 20.481 50.792 20.481 50.792 20.481C50.792 20.481 50.792 20.481 50.792 20.481C50.792 20.481 50.792 20.481 50.792 20.481C50.792 20.481 50.792 20.481 50.792 20.481C50.792 20.481 50.792 20.481 50.792 20.481C50.792 20.481 50.7919 20.481 50.7919 20.481C50.7919 20.481 50.7919 20.481 50.7919 20.481C50.7919 20.481 50.7919 20.481 50.7919 20.481C50.7919 20.481 50.7919 20.481 50.7919 20.481C50.7919 20.481 50.7919 20.481 50.7919 20.481C50.7919 20.481 50.7919 20.481 50.7919 20.481C50.7919 20.481 50.7919 20.481 50.7919 20.481C50.7919 20.481 50.7919 20.481 50.7919 20.481C50.7918 20.481 50.7918 20.481 50.7918 20.481C50.7918 20.481 50.7918 20.481 50.7918 20.481C50.7918 20.481 50.7918 20.481 50.7918 20.481C50.7918 20.481 50.7918 20.481 50.7918 20.481C50.7918 20.481 50.7918 20.481 50.7918 20.481C50.7918 20.481 50.7918 20.481 50.7918 20.481C50.7918 20.481 50.7918 20.481 50.7918 20.481C50.7918 20.481 50.7918 20.481 50.7918 20.481C50.7918 20.481 50.7917 20.481 50.7917 20.481C50.7917 20.481 50.7917 20.481 50.7917 20.481C50.7917 20.481 50.7917 20.481 50.7917 20.481C50.7917 20.481 50.7917 20.481 50.7917 20.481C50.7917 20.481 50.7917 20.481 50.7917 20.481C50.7917 20.481 50.7917 20.481 50.7917 20.481C50.7917 20.481 50.7917 20.481 50.7917 20.481C50.7917 20.481 50.7917 20.481 50.7917 20.481C50.7917 20.481 50.7917 20.481 50.7917 20.481C50.7917 20.481 50.7917 20.481 50.7917 20.481C50.7917 20.481 50.7916 20.481 50.7916 20.481C50.7916 20.481 50.7916 20.481 50.7916 20.481C50.7916 20.481 50.7916 20.481 50.7916 20.481C50.7916 20.481 50.7916 20.481 50.7916 20.481C50.7916 20.481 50.7916 20.481 50.7916 20.481C50.7916 20.481 50.7916 20.481 50.7916 20.481C50.7916 20.481 50.7916 20.481 50.7916 20.481C50.7916 20.481 50.7916 20.481 50.7916 20.481C50.7916 20.481 50.7916 20.481 50.7916 20.481C50.7916 20.481 50.7916 20.481 50.7916 20.481C50.7916 20.481 50.7916 20.481 50.7916 20.481C50.7916 20.481 50.7916 20.481 50.7916 20.481C50.7915 20.481 50.7915 20.481 50.7915 20.481C50.7915 20.481 50.7915 20.481 50.7915 20.481C50.7915 20.481 50.7915 20.481 50.7915 20.481C50.7915 20.481 50.7915 20.481 50.7915 20.481C50.7915 20.481 50.7915 20.481 50.7915 20.481H50.7915C50.7915 20.481 50.7915 20.481 50.7915 20.481C50.7915 20.481 50.7915 20.481 50.7915 20.481C50.7915 20.481 50.7915 20.481 50.7915 20.481H50.7915C50.7915 20.481 50.7915 20.481 50.7915 20.481H50.7915C50.7915 20.481 50.7915 20.481 50.7915 20.481C50.7915 20.481 50.7915 20.481 50.7915 20.481H50.7915C50.7915 20.481 50.7915 20.481 50.7914 20.481H50.7914H50.7914C50.7914 20.481 50.7914 20.481 50.7914 20.481H50.7914C50.7914 20.481 50.7914 20.481 50.7914 20.481C50.7914 20.481 50.7914 20.481 50.7914 20.481H50.7914C50.7914 20.481 50.7914 20.481 50.7914 20.481C50.7914 20.481 50.7914 20.481 50.7914 20.481C50.7914 20.481 50.7914 20.481 50.7914 20.481H50.7914H50.7914H50.7914H50.7914C50.7914 20.481 50.7914 20.481 50.7914 20.481C50.7914 20.481 50.7914 20.481 50.7914 20.481C50.7914 20.481 50.7914 20.481 50.7914 20.481C50.7914 20.481 50.7914 20.481 50.7914 20.481C50.7914 20.481 50.7914 20.481 50.7914 20.481C50.7914 20.481 50.7914 20.481 50.7914 20.481H50.7914H50.7914C50.7914 20.481 50.7914 20.481 50.7913 20.481C50.7913 20.481 50.7913 20.481 50.7913 20.481C50.7913 20.481 50.7913 20.481 50.7913 20.481H50.7913C50.7913 20.481 50.7913 20.481 50.7913 20.481C50.7913 20.481 50.7913 20.481 50.7913 20.481H50.7913C50.7913 20.481 50.7913 20.481 50.7913 20.481C50.7913 20.481 50.7913 20.481 50.7913 20.481H50.7913C50.7913 20.481 50.7913 20.481 50.7913 20.481C50.7913 20.481 50.7913 20.481 50.7913 20.481C50.7913 20.481 50.7913 20.481 50.7913 20.481H50.7913C50.7913 20.481 50.7913 20.481 50.7913 20.481H50.7913H50.7913C50.7913 20.481 50.7913 20.481 50.7913 20.481H50.7913C50.7913 20.481 50.7913 20.481 50.7913 20.481C50.7913 20.481 50.7913 20.481 50.7913 20.481V21.1564V21.8318C50.7913 21.8318 50.7913 21.8318 50.7913 21.8318C50.7913 21.8318 50.7913 21.8318 50.7913 21.8318H50.7913C50.7913 21.8318 50.7913 21.8318 50.7913 21.8318H50.7913H50.7913C50.7913 21.8318 50.7913 21.8318 50.7913 21.8318H50.7913C50.7913 21.8318 50.7913 21.8318 50.7913 21.8318C50.7913 21.8318 50.7913 21.8318 50.7913 21.8318C50.7913 21.8318 50.7913 21.8318 50.7913 21.8318H50.7913C50.7913 21.8318 50.7913 21.8318 50.7913 21.8318C50.7913 21.8318 50.7913 21.8318 50.7913 21.8318H50.7913C50.7913 21.8318 50.7913 21.8318 50.7913 21.8318C50.7913 21.8318 50.7913 21.8318 50.7913 21.8318H50.7913C50.7913 21.8318 50.7913 21.8318 50.7913 21.8318C50.7913 21.8318 50.7913 21.8318 50.7913 21.8318C50.7914 21.8318 50.7914 21.8318 50.7914 21.8318H50.7914H50.7914C50.7914 21.8318 50.7914 21.8318 50.7914 21.8318C50.7914 21.8318 50.7914 21.8318 50.7914 21.8318C50.7914 21.8318 50.7914 21.8318 50.7914 21.8318C50.7914 21.8318 50.7914 21.8318 50.7914 21.8318C50.7914 21.8318 50.7914 21.8318 50.7914 21.8318C50.7914 21.8318 50.7914 21.8318 50.7914 21.8318H50.7914H50.7914H50.7914H50.7914C50.7914 21.8318 50.7914 21.8318 50.7914 21.8318C50.7914 21.8318 50.7914 21.8318 50.7914 21.8318C50.7914 21.8318 50.7914 21.8318 50.7914 21.8318H50.7914C50.7914 21.8318 50.7914 21.8318 50.7914 21.8318C50.7914 21.8318 50.7914 21.8318 50.7914 21.8318H50.7914C50.7914 21.8318 50.7914 21.8318 50.7914 21.8318H50.7914H50.7914C50.7915 21.8318 50.7915 21.8318 50.7915 21.8318H50.7915C50.7915 21.8318 50.7915 21.8318 50.7915 21.8318C50.7915 21.8318 50.7915 21.8318 50.7915 21.8318H50.7915C50.7915 21.8318 50.7915 21.8318 50.7915 21.8318H50.7915C50.7915 21.8318 50.7915 21.8318 50.7915 21.8318C50.7915 21.8318 50.7915 21.8318 50.7915 21.8318C50.7915 21.8318 50.7915 21.8318 50.7915 21.8318H50.7915C50.7915 21.8318 50.7915 21.8318 50.7915 21.8318C50.7915 21.8318 50.7915 21.8318 50.7915 21.8318C50.7915 21.8318 50.7915 21.8318 50.7915 21.8318C50.7915 21.8318 50.7915 21.8318 50.7915 21.8318C50.7915 21.8318 50.7915 21.8318 50.7916 21.8318C50.7916 21.8318 50.7916 21.8318 50.7916 21.8318C50.7916 21.8318 50.7916 21.8318 50.7916 21.8318C50.7916 21.8318 50.7916 21.8318 50.7916 21.8318C50.7916 21.8318 50.7916 21.8318 50.7916 21.8318C50.7916 21.8318 50.7916 21.8318 50.7916 21.8318C50.7916 21.8318 50.7916 21.8318 50.7916 21.8318C50.7916 21.8318 50.7916 21.8318 50.7916 21.8318C50.7916 21.8318 50.7916 21.8318 50.7916 21.8318C50.7916 21.8318 50.7916 21.8318 50.7916 21.8318C50.7916 21.8318 50.7916 21.8318 50.7916 21.8318C50.7916 21.8318 50.7916 21.8318 50.7916 21.8318C50.7916 21.8318 50.7917 21.8318 50.7917 21.8318C50.7917 21.8318 50.7917 21.8318 50.7917 21.8318C50.7917 21.8318 50.7917 21.8318 50.7917 21.8318C50.7917 21.8318 50.7917 21.8318 50.7917 21.8318C50.7917 21.8318 50.7917 21.8318 50.7917 21.8318C50.7917 21.8318 50.7917 21.8318 50.7917 21.8318C50.7917 21.8318 50.7917 21.8318 50.7917 21.8318C50.7917 21.8318 50.7917 21.8318 50.7917 21.8318C50.7917 21.8318 50.7917 21.8318 50.7917 21.8318C50.7917 21.8318 50.7917 21.8318 50.7917 21.8318C50.7917 21.8318 50.7918 21.8318 50.7918 21.8318C50.7918 21.8318 50.7918 21.8318 50.7918 21.8318C50.7918 21.8318 50.7918 21.8318 50.7918 21.8318C50.7918 21.8318 50.7918 21.8318 50.7918 21.8318C50.7918 21.8318 50.7918 21.8318 50.7918 21.8318C50.7918 21.8318 50.7918 21.8318 50.7918 21.8318C50.7918 21.8318 50.7918 21.8318 50.7918 21.8318C50.7918 21.8318 50.7918 21.8318 50.7918 21.8318C50.7918 21.8318 50.7918 21.8318 50.7919 21.8318C50.7919 21.8318 50.7919 21.8318 50.7919 21.8318C50.7919 21.8318 50.7919 21.8318 50.7919 21.8318C50.7919 21.8318 50.7919 21.8318 50.7919 21.8318C50.7919 21.8318 50.7919 21.8318 50.7919 21.8318C50.7919 21.8318 50.7919 21.8318 50.7919 21.8318C50.7919 21.8318 50.7919 21.8318 50.7919 21.8318C50.7919 21.8318 50.7919 21.8318 50.7919 21.8318C50.7919 21.8318 50.792 21.8318 50.792 21.8318C50.792 21.8318 50.792 21.8318 50.792 21.8318C50.792 21.8318 50.792 21.8318 50.792 21.8318C50.792 21.8318 50.792 21.8318 50.792 21.8318C50.792 21.8318 50.792 21.8318 50.792 21.8318C50.792 21.8318 50.792 21.8318 50.792 21.8318C50.792 21.8318 50.792 21.8318 50.792 21.8318C50.792 21.8318 50.792 21.8318 50.7921 21.8318C50.7921 21.8318 50.7921 21.8318 50.7921 21.8318C50.7921 21.8318 50.7921 21.8318 50.7921 21.8318C50.7921 21.8318 50.7921 21.8318 50.7921 21.8318C50.7921 21.8318 50.7921 21.8318 50.7921 21.8318C50.7921 21.8318 50.7921 21.8318 50.7921 21.8318C50.7921 21.8318 50.7921 21.8318 50.7921 21.8318C50.7922 21.8318 50.7922 21.8318 50.7922 21.8318C50.7922 21.8318 50.7922 21.8318 50.7922 21.8318C50.7922 21.8318 50.7922 21.8318 50.7922 21.8318C50.7922 21.8318 50.7922 21.8318 50.7922 21.8318C50.7922 21.8318 50.7922 21.8318 50.7922 21.8318C50.7922 21.8318 50.7922 21.8318 50.7923 21.8318C50.7923 21.8318 50.7923 21.8318 50.7923 21.8318C50.7923 21.8318 50.7923 21.8318 50.7923 21.8318C50.7923 21.8318 50.7923 21.8318 50.7923 21.8318C50.7923 21.8318 50.7923 21.8318 50.7923 21.8318C50.7923 21.8318 50.7923 21.8318 50.7923 21.8318C50.7923 21.8318 50.7924 21.8318 50.7924 21.8318C50.7924 21.8318 50.7924 21.8318 50.7924 21.8318C50.7924 21.8318 50.7924 21.8318 50.7924 21.8318C50.7924 21.8318 50.7924 21.8318 50.7924 21.8318C50.7924 21.8318 50.7924 21.8318 50.7924 21.8318C50.7924 21.8318 50.7924 21.8318 50.7925 21.8318C50.7925 21.8318 50.7925 21.8318 50.7925 21.8318C50.7925 21.8318 50.7925 21.8318 50.7925 21.8318C50.7925 21.8318 50.7925 21.8318 50.7925 21.8318C50.7925 21.8318 50.7925 21.8318 50.7925 21.8318C50.7925 21.8318 50.7925 21.8318 50.7926 21.8318C50.7926 21.8318 50.7926 21.8318 50.7926 21.8318C50.7926 21.8318 50.7926 21.8318 50.7926 21.8318C50.7926 21.8318 50.7926 21.8318 50.7926 21.8318C50.7926 21.8318 50.7926 21.8318 50.7926 21.8318C50.7926 21.8318 50.7927 21.8318 50.7927 21.8318C50.7927 21.8318 50.7927 21.8318 50.7927 21.8318C50.7927 21.8318 50.7927 21.8318 50.7927 21.8318C50.7927 21.8318 50.7927 21.8318 50.7927 21.8318C50.7927 21.8318 50.7927 21.8318 50.7928 21.8318C50.7928 21.8318 50.7928 21.8318 50.7928 21.8318C50.7928 21.8318 50.7928 21.8318 50.7928 21.8318C50.7928 21.8318 50.7928 21.8318 50.7928 21.8318C50.7928 21.8318 50.7928 21.8318 50.7929 21.8318C50.7929 21.8318 50.7929 21.8318 50.7929 21.8318C50.7929 21.8318 50.7929 21.8318 50.7929 21.8318C50.7929 21.8318 50.7929 21.8318 50.7929 21.8318C50.7929 21.8318 50.7929 21.8318 50.7929 21.8318C50.793 21.8318 50.793 21.8318 50.793 21.8318C50.793 21.8318 50.793 21.8318 50.793 21.8318C50.793 21.8318 50.793 21.8318 50.793 21.8318C50.793 21.8318 50.793 21.8318 50.793 21.8318C50.7931 21.8318 50.7931 21.8318 50.7931 21.8318C50.7931 21.8318 50.7931 21.8318 50.7931 21.8318C50.7931 21.8318 50.7931 21.8318 50.7931 21.8318C50.7931 21.8318 50.7931 21.8318 50.7932 21.8318C50.7932 21.8318 50.7932 21.8318 50.7932 21.8318C50.7932 21.8318 50.7932 21.8318 50.7932 21.8318C50.7932 21.8318 50.7932 21.8318 50.7932 21.8318C50.7932 21.8318 50.7933 21.8318 50.7933 21.8318C50.7933 21.8318 50.7933 21.8318 50.7933 21.8318C50.7933 21.8318 50.7933 21.8318 50.7933 21.8318C50.7933 21.8318 50.7933 21.8318 50.7934 21.8318C50.7934 21.8318 50.7934 21.8318 50.7934 21.8318C50.7934 21.8318 50.7934 21.8318 50.7934 21.8318C50.7934 21.8318 50.7934 21.8318 50.7934 21.8318C50.7934 21.8318 50.7935 21.8318 50.7935 21.8318C50.7935 21.8318 50.7935 21.8318 50.7935 21.8318C50.7935 21.8318 50.7935 21.8318 50.7935 21.8318C50.7935 21.8318 50.7935 21.8318 50.7936 21.8318C50.7936 21.8318 50.7936 21.8318 50.7936 21.8318C50.7936 21.8318 50.7936 21.8318 50.7936 21.8318C50.7936 21.8318 50.7936 21.8318 50.7937 21.8318C50.7937 21.8318 50.7937 21.8318 50.7937 21.8318C50.7937 21.8318 50.7937 21.8318 50.7937 21.8318C50.7937 21.8318 50.7937 21.8318 50.7938 21.8318C50.7938 21.8318 50.7938 21.8318 50.7938 21.8318C50.7938 21.8318 50.7938 21.8318 50.7938 21.8318C50.7938 21.8318 50.7938 21.8318 50.7938 21.8318C50.7939 21.8318 50.7939 21.8318 50.7939 21.8318C50.7939 21.8318 50.7939 21.8318 50.7939 21.8318C50.7939 21.8318 50.7939 21.8318 50.7939 21.8318C50.794 21.8318 50.794 21.8318 50.794 21.8318C50.794 21.8318 50.794 21.8318 50.794 21.8318C50.794 21.8318 50.794 21.8318 50.7941 21.8318C50.7941 21.8318 50.7941 21.8318 50.7941 21.8318C50.7941 21.8318 50.7941 21.8318 50.7941 21.8318C50.7941 21.8318 50.7941 21.8318 50.7942 21.8318C50.7942 21.8318 50.7942 21.8318 50.7942 21.8318C50.7942 21.8318 50.7942 21.8318 50.7942 21.8318C50.7942 21.8318 50.7943 21.8318 50.7943 21.8318C50.7943 21.8318 50.7943 21.8318 50.7943 21.8318C50.7943 21.8318 50.7943 21.8318 50.7943 21.8318C50.7944 21.8318 50.7944 21.8318 50.7944 21.8318C50.7944 21.8318 50.7944 21.8318 50.7944 21.8318C50.7944 21.8318 50.7944 21.8318 50.7945 21.8318C50.7945 21.8318 50.7945 21.8318 50.7945 21.8318C50.7945 21.8318 50.7945 21.8318 50.7945 21.8318C50.7945 21.8318 50.7946 21.8318 50.7946 21.8318C50.7946 21.8318 50.7946 21.8318 50.7946 21.8318C50.7946 21.8318 50.7946 21.8318 50.7947 21.8318C50.7947 21.8318 50.7947 21.8318 50.7947 21.8318C50.7947 21.8318 50.7947 21.8318 50.7947 21.8318C50.7947 21.8318 50.7948 21.8318 50.7948 21.8318C50.7948 21.8318 50.7948 21.8318 50.7948 21.8318C50.7948 21.8318 50.7948 21.8318 50.7949 21.8318C50.7949 21.8318 50.7949 21.8318 50.7949 21.8318C50.7949 21.8318 50.7949 21.8318 50.7949 21.8318C50.795 21.8318 50.795 21.8318 50.795 21.8318C50.795 21.8318 50.795 21.8318 50.795 21.8318C50.795 21.8318 50.7951 21.8318 50.7951 21.8318C50.7951 21.8318 50.7951 21.8318 50.7951 21.8318C50.7951 21.8318 50.7951 21.8318 50.7952 21.8318C50.7952 21.8318 50.7952 21.8318 50.7952 21.8318C50.7952 21.8318 50.7952 21.8318 50.7952 21.8318C50.7953 21.8318 50.7953 21.8318 50.7953 21.8318C50.7953 21.8318 50.7953 21.8318 50.7953 21.8318C50.7953 21.8318 50.7954 21.8318 50.7954 21.8318C50.7954 21.8318 50.7954 21.8318 50.7954 21.8318C50.7954 21.8318 50.7955 21.8318 50.7955 21.8318C50.7955 21.8318 50.7955 21.8318 50.7955 21.8318C50.7955 21.8318 50.7955 21.8318 50.7956 21.8318C50.7956 21.8318 50.7956 21.8318 50.7956 21.8318C50.7956 21.8318 50.7956 21.8318 50.7957 21.8318C50.7957 21.8318 50.7957 21.8318 50.7957 21.8318C50.7957 21.8318 50.7957 21.8318 50.7958 21.8318C50.7958 21.8318 50.7958 21.8318 50.7958 21.8318C50.7958 21.8318 50.7958 21.8318 50.7958 21.8318C50.7959 21.8318 50.7959 21.8318 50.7959 21.8318C50.7959 21.8318 50.7959 21.8318 50.7959 21.8318C50.796 21.8318 50.796 21.8318 50.796 21.8318C50.796 21.8318 50.796 21.8318 50.796 21.8318C50.7961 21.8318 50.7961 21.8318 50.7961 21.8318C50.7961 21.8318 50.7961 21.8318 50.7962 21.8318C50.7962 21.8318 50.7962 21.8318 50.7962 21.8318C50.7962 21.8318 50.7962 21.8318 50.7963 21.8318C50.7963 21.8318 50.7963 21.8318 50.7963 21.8318C50.7963 21.8318 50.7963 21.8318 50.7964 21.8318C50.7964 21.8318 50.7964 21.8318 50.7964 21.8318C50.7964 21.8318 50.7964 21.8318 50.7965 21.8318C50.7965 21.8318 50.7965 21.8318 50.7965 21.8318C50.7965 21.8318 50.7966 21.8318 50.7966 21.8318C50.7966 21.8318 50.7966 21.8318 50.7966 21.8318C50.7966 21.8318 50.7967 21.8318 50.7967 21.8318C50.7967 21.8318 50.7967 21.8318 50.7967 21.8318C50.7967 21.8318 50.7968 21.8318 50.7968 21.8318C50.7968 21.8318 50.7968 21.8318 50.7968 21.8318C50.7969 21.8318 50.7969 21.8318 50.7969 21.8318C50.7969 21.8318 50.7969 21.8318 50.797 21.8318C50.797 21.8318 50.797 21.8318 50.797 21.8318C50.797 21.8318 50.7971 21.8318 50.7971 21.8318C50.7971 21.8318 50.7971 21.8318 50.7971 21.8318C50.7971 21.8318 50.7972 21.8318 50.7972 21.8318C50.7972 21.8318 50.7972 21.8318 50.7972 21.8318C50.7973 21.8318 50.7973 21.8318 50.7973 21.8318C50.7973 21.8318 50.7973 21.8318 50.7974 21.8318C50.7974 21.8318 50.7974 21.8318 50.7974 21.8318C50.7974 21.8318 50.7975 21.8318 50.7975 21.8318C50.7975 21.8318 50.7975 21.8318 50.7975 21.8318C50.7976 21.8318 50.7976 21.8318 50.7976 21.8318C50.7976 21.8318 50.7976 21.8318 50.7977 21.8318C50.7977 21.8318 50.7977 21.8318 50.7977 21.8318C50.7977 21.8318 50.7978 21.8318 50.7978 21.8318C50.7978 21.8318 50.7978 21.8318 50.7978 21.8318C50.7979 21.8318 50.7979 21.8318 50.7979 21.8318C50.7979 21.8318 50.7979 21.8318 50.798 21.8318C50.798 21.8318 50.798 21.8318 50.798 21.8318C50.7981 21.8318 50.7981 21.8318 50.7981 21.8318C50.7981 21.8318 50.7981 21.8318 50.7982 21.8318C50.7982 21.8318 50.7982 21.8318 50.7982 21.8318C50.7982 21.8318 50.7983 21.8318 50.7983 21.8318C50.7983 21.8318 50.7983 21.8318 50.7984 21.8318C50.7984 21.8318 50.7984 21.8318 50.7984 21.8318C50.7984 21.8318 50.7985 21.8318 50.7985 21.8318C50.7985 21.8318 50.7985 21.8318 50.7986 21.8318C50.7986 21.8318 50.7986 21.8318 50.7986 21.8318C50.7986 21.8318 50.7987 21.8318 50.7987 21.8318C50.7987 21.8318 50.7987 21.8318 50.7988 21.8318C50.7988 21.8318 50.7988 21.8318 50.7988 21.8318C50.7988 21.8318 50.7989 21.8318 50.7989 21.8318C50.7989 21.8318 50.7989 21.8318 50.799 21.8318C50.799 21.8318 50.799 21.8318 50.799 21.8318C50.799 21.8318 50.7991 21.8318 50.7991 21.8318C50.7991 21.8318 50.7991 21.8318 50.7992 21.8318C50.7992 21.8318 50.7992 21.8318 50.7992 21.8318C50.7993 21.8318 50.7993 21.8318 50.7993 21.8318C50.7993 21.8318 50.7994 21.8318 50.7994 21.8318C50.7994 21.8318 50.7994 21.8318 50.7995 21.8318C50.7995 21.8318 50.7995 21.8318 50.7995 21.8318C50.7995 21.8318 50.7996 21.8318 50.7996 21.8318C50.7996 21.8318 50.7996 21.8318 50.7997 21.8318C50.7997 21.8318 50.7997 21.8318 50.7997 21.8318C50.7998 21.8318 50.7998 21.8318 50.7998 21.8318C50.7998 21.8318 50.7999 21.8318 50.7999 21.8318C50.7999 21.8318 50.7999 21.8318 50.8 21.8318C50.8 21.8318 50.8 21.8318 50.8 21.8318C50.8001 21.8318 50.8001 21.8318 50.8001 21.8318C50.8001 21.8318 50.8002 21.8318 50.8002 21.8318C50.8002 21.8318 50.8002 21.8318 50.8003 21.8318C50.8003 21.8318 50.8003 21.8318 50.8003 21.8318C50.8004 21.8318 50.8004 21.8318 50.8004 21.8318C50.8004 21.8318 50.8005 21.8318 50.8005 21.8318C50.8005 21.8318 50.8006 21.8318 50.8006 21.8318C50.8006 21.8318 50.8006 21.8318 50.8007 21.8318C50.8007 21.8318 50.8007 21.8318 50.8007 21.8318C50.8008 21.8318 50.8008 21.8318 50.8008 21.8318C50.8008 21.8318 50.8009 21.8318 50.8009 21.8318C50.8009 21.8318 50.8009 21.8318 50.801 21.8318C50.801 21.8318 50.801 21.8318 50.8011 21.8318C50.8011 21.8318 50.8011 21.8318 50.8011 21.8318C50.8012 21.8318 50.8012 21.8318 50.8012 21.8318C50.8013 21.8318 50.8013 21.8318 50.8013 21.8318C50.8013 21.8318 50.8014 21.8318 50.8014 21.8318C50.8014 21.8318 50.8014 21.8318 50.8015 21.8318C50.8015 21.8318 50.8015 21.8318 50.8016 21.8318C50.8016 21.8318 50.8016 21.8318 50.8016 21.8318C50.8017 21.8318 50.8017 21.8318 50.8017 21.8318C50.8018 21.8318 50.8018 21.8318 50.8018 21.8318C50.8018 21.8318 50.8019 21.8318 50.8019 21.8318C50.8019 21.8318 50.8019 21.8318 50.802 21.8318C50.802 21.8318 50.802 21.8318 50.8021 21.8318C50.8021 21.8318 50.8021 21.8318 50.8022 21.8318C50.8022 21.8318 50.8022 21.8318 50.8022 21.8318C50.8023 21.8318 50.8023 21.8318 50.8023 21.8318C50.8024 21.8318 50.8024 21.8318 50.8024 21.8318C50.8024 21.8318 50.8025 21.8318 50.8025 21.8318C50.8025 21.8318 50.8026 21.8318 50.8026 21.8318C50.8026 21.8318 50.8027 21.8318 50.8027 21.8318C50.8027 21.8318 50.8027 21.8318 50.8028 21.8318C50.8028 21.8318 50.8028 21.8318 50.8029 21.8318C50.8029 21.8318 50.8029 21.8318 50.803 21.8318C50.803 21.8318 50.803 21.8318 50.803 21.8318C50.8031 21.8318 50.8031 21.8318 50.8031 21.8318C50.8032 21.8318 50.8032 21.8318 50.8032 21.8318C50.8033 21.8318 50.8033 21.8318 50.8033 21.8318C50.8034 21.8318 50.8034 21.8318 50.8034 21.8318C50.8034 21.8318 50.8035 21.8318 50.8035 21.8318C50.8035 21.8318 50.8036 21.8318 50.8036 21.8318C50.8036 21.8318 50.8037 21.8318 50.8037 21.8318C50.8037 21.8318 50.8038 21.8318 50.8038 21.8318C50.8038 21.8318 50.8039 21.8318 50.8039 21.8318C50.8039 21.8318 50.804 21.8318 50.804 21.8318C50.804 21.8318 50.8041 21.8318 50.8041 21.8318C50.8041 21.8318 50.8041 21.8318 50.8042 21.8318C50.8042 21.8318 50.8042 21.8318 50.8043 21.8318C50.8043 21.8318 50.8043 21.8318 50.8044 21.8318C50.8044 21.8318 50.8044 21.8318 50.8045 21.8318C50.8045 21.8318 50.8045 21.8318 50.8046 21.8318C50.8046 21.8318 50.8046 21.8318 50.8047 21.8318C50.8047 21.8318 50.8047 21.8318 50.8048 21.8318C50.8048 21.8318 50.8048 21.8318 50.8049 21.8318C50.8049 21.8318 50.8049 21.8318 50.805 21.8318C50.805 21.8318 50.805 21.8318 50.8051 21.8318C50.8051 21.8318 50.8051 21.8318 50.8052 21.8318C50.8052 21.8318 50.8052 21.8318 50.8053 21.8318C50.8053 21.8318 50.8054 21.8318 50.8054 21.8318C50.8054 21.8318 50.8055 21.8318 50.8055 21.8318C50.8055 21.8318 50.8056 21.8318 50.8056 21.8318C50.8056 21.8318 50.8057 21.8318 50.8057 21.8318C50.8057 21.8318 50.8058 21.8318 50.8058 21.8318C50.8058 21.8318 50.8059 21.8318 50.8059 21.8318C50.8059 21.8318 50.806 21.8318 50.806 21.8318C50.8061 21.8318 50.8061 21.8318 50.8061 21.8318C50.8062 21.8318 50.8062 21.8318 50.8062 21.8318C50.8063 21.8318 50.8063 21.8318 50.8063 21.8318C50.8064 21.8318 50.8064 21.8318 50.8064 21.8318C50.8065 21.8318 50.8065 21.8318 50.8066 21.8318C50.8066 21.8318 50.8066 21.8318 50.8067 21.8318C50.8067 21.8318 50.8067 21.8318 50.8068 21.8318C50.8068 21.8318 50.8069 21.8318 50.8069 21.8318C50.8069 21.8318 50.807 21.8318 50.807 21.8318C50.807 21.8318 50.8071 21.8318 50.8071 21.8318C50.8071 21.8318 50.8072 21.8318 50.8072 21.8318C50.8073 21.8318 50.8073 21.8318 50.8073 21.8318C50.8074 21.8318 50.8074 21.8318 50.8074 21.8318C50.8075 21.8318 50.8075 21.8318 50.8076 21.8318C50.8076 21.8318 50.8076 21.8318 50.8077 21.8318C50.8077 21.8318 50.8078 21.8318 50.8078 21.8318C50.8078 21.8318 50.8079 21.8318 50.8079 21.8318C50.8079 21.8318 50.808 21.8318 50.808 21.8318C50.8081 21.8318 50.8081 21.8318 50.8081 21.8318C50.8082 21.8318 50.8082 21.8318 50.8083 21.8318C50.8083 21.8318 50.8083 21.8318 50.8084 21.8318C50.8084 21.8318 50.8084 21.8318 50.8085 21.8318C50.8085 21.8318 50.8086 21.8318 50.8086 21.8318C50.8086 21.8318 50.8087 21.8318 50.8087 21.8318C50.8088 21.8318 50.8088 21.8318 50.8088 21.8318C50.8089 21.8318 50.8089 21.8318 50.809 21.8318C50.809 21.8318 50.809 21.8318 50.8091 21.8318C50.8091 21.8318 50.8092 21.8318 50.8092 21.8318C50.8092 21.8318 50.8093 21.8318 50.8093 21.8318C50.8094 21.8318 50.8094 21.8318 50.8095 21.8318C50.8095 21.8318 50.8095 21.8318 50.8096 21.8318C50.8096 21.8318 50.8097 21.8318 50.8097 21.8318C50.8097 21.8318 50.8098 21.8318 50.8098 21.8318C50.8099 21.8318 50.8099 21.8318 50.8099 21.8318C50.81 21.8318 50.81 21.8318 50.8101 21.8318C50.8101 21.8318 50.8102 21.8318 50.8102 21.8318C50.8102 21.8318 50.8103 21.8318 50.8103 21.8318C50.8104 21.8318 50.8104 21.8318 50.8105 21.8318C50.8105 21.8318 50.8105 21.8318 50.8106 21.8318C50.8106 21.8318 50.8107 21.8318 50.8107 21.8318C50.8107 21.8318 50.8108 21.8318 50.8108 21.8318C50.8109 21.8318 50.8109 21.8318 50.811 21.8318C50.811 21.8318 50.8111 21.8318 50.8111 21.8318C50.8111 21.8318 50.8112 21.8318 50.8112 21.8318C50.8113 21.8318 50.8113 21.8318 50.8114 21.8318C50.8114 21.8318 50.8114 21.8318 50.8115 21.8318C50.8115 21.8318 50.8116 21.8318 50.8116 21.8318C50.8117 21.8318 50.8117 21.8318 50.8117 21.8318C50.8118 21.8318 50.8118 21.8318 50.8119 21.8318C50.8119 21.8318 50.812 21.8318 50.812 21.8318C50.8121 21.8318 50.8121 21.8318 50.8121 21.8318C50.8122 21.8318 50.8122 21.8318 50.8123 21.8318C50.8123 21.8318 50.8124 21.8318 50.8124 21.8318C50.8125 21.8318 50.8125 21.8318 50.8126 21.8318C50.8126 21.8318 50.8126 21.8318 50.8127 21.8318C50.8127 21.8318 50.8128 21.8318 50.8128 21.8318C50.8129 21.8318 50.8129 21.8318 50.813 21.8318C50.813 21.8318 50.8131 21.8318 50.8131 21.8318C50.8132 21.8318 50.8132 21.8318 50.8132 21.8318C50.8133 21.8318 50.8133 21.8318 50.8134 21.8318C50.8134 21.8318 50.8135 21.8318 50.8135 21.8318C50.8136 21.8318 50.8136 21.8318 50.8137 21.8318C50.8137 21.8318 50.8138 21.8318 50.8138 21.8318C50.8139 21.8318 50.8139 21.8318 50.8139 21.8318C50.814 21.8318 50.814 21.8318 50.8141 21.8318C50.8141 21.8318 50.8142 21.8318 50.8142 21.8318C50.8143 21.8318 50.8143 21.8318 50.8144 21.8318C50.8144 21.8318 50.8145 21.8318 50.8145 21.8318C50.8146 21.8318 50.8146 21.8318 50.8147 21.8318C50.8147 21.8318 50.8148 21.8318 50.8148 21.8318C50.8149 21.8318 50.8149 21.8318 50.815 21.8318C50.815 21.8318 50.8151 21.8318 50.8151 21.8318C50.8152 21.8318 50.8152 21.8318 50.8152 21.8318C50.8153 21.8318 50.8153 21.8318 50.8154 21.8318C50.8154 21.8318 50.8155 21.8318 50.8155 21.8318C50.8156 21.8318 50.8156 21.8318 50.8157 21.8318C50.8157 21.8318 50.8158 21.8318 50.8158 21.8318C50.8159 21.8318 50.8159 21.8318 50.816 21.8318C50.816 21.8318 50.8161 21.8318 50.8161 21.8318C50.8162 21.8318 50.8162 21.8318 50.8163 21.8318C50.8163 21.8318 50.8164 21.8318 50.8164 21.8318C50.8165 21.8318 50.8165 21.8318 50.8166 21.8318C50.8167 21.8318 50.8167 21.8318 50.8168 21.8318C50.8168 21.8318 50.8169 21.8318 50.8169 21.8318C50.817 21.8318 50.817 21.8318 50.8171 21.8318C50.8171 21.8318 50.8172 21.8318 50.8172 21.8318C50.8173 21.8318 50.8173 21.8318 50.8174 21.8318C50.8174 21.8318 50.8175 21.8318 50.8175 21.8318C50.8176 21.8318 50.8176 21.8318 50.8177 21.8318C50.8177 21.8318 50.8178 21.8318 50.8178 21.8318C50.8179 21.8318 50.8179 21.8318 50.818 21.8318C50.8181 21.8318 50.8181 21.8318 50.8182 21.8318C50.8182 21.8318 50.8183 21.8318 50.8183 21.8318C50.8184 21.8318 50.8184 21.8318 50.8185 21.8318C50.8185 21.8318 50.8186 21.8318 50.8186 21.8318C50.8187 21.8318 50.8187 21.8318 50.8188 21.8318C50.8189 21.8318 50.8189 21.8318 50.819 21.8318V20.481ZM50.7913 20.481C50.5035 20.481 50.2233 20.28 50.1235 20.0091L48.856 20.4761C49.1439 21.2574 49.916 21.8318 50.7913 21.8318V20.481ZM50.1222 20.0054L45.9685 8.92898L44.7037 9.40327L48.8574 20.4797L50.1222 20.0054ZM45.9665 8.92368C45.8216 8.54687 46.0145 8.15177 46.3601 8.03213L45.9182 6.75566C44.8239 7.13447 44.2969 8.34545 44.7057 9.40858L45.9665 8.92368ZM46.3816 8.02427C46.7416 7.88583 47.1334 8.05557 47.281 8.43939L48.5418 7.95449C48.1356 6.89837 46.9767 6.34814 45.8967 6.76352L46.3816 8.02427ZM47.2793 8.43483L50.1869 16.1606L51.4511 15.6849L48.5435 7.95905L47.2793 8.43483ZM51.4518 16.1587L54.3317 8.43284L53.066 7.96104L50.1861 15.6869L51.4518 16.1587ZM54.3292 8.43939C54.4768 8.05558 54.8687 7.88583 55.2286 8.02427L55.7135 6.76352C54.6335 6.34814 53.4747 6.89837 53.0685 7.95449L54.3292 8.43939ZM60.9974 4.12635L61.475 3.64877L60.9974 4.12635ZM60.9974 2.18797L60.5198 1.71039L60.5198 1.7104L60.9974 2.18797ZM62.9358 2.18797L63.4133 1.7104L63.4133 1.71039L62.9358 2.18797ZM61.9666 20.5087C61.5642 20.5087 61.2574 20.2019 61.2574 19.7995H59.9066C59.9066 20.9479 60.8182 21.8595 61.9666 21.8595V20.5087ZM61.2574 19.7995V8.64H59.9066V19.7995H61.2574ZM61.2574 8.64C61.2574 8.27422 61.5553 7.95852 61.9666 7.95852V6.60774C60.8272 6.60774 59.9066 7.51045 59.9066 8.64H61.2574ZM61.9666 7.95852C62.3412 7.95852 62.648 8.26535 62.648 8.64H63.9988C63.9988 7.51933 63.0872 6.60774 61.9666 6.60774V7.95852ZM62.648 8.64V19.7995H63.9988V8.64H62.648ZM62.648 19.7995C62.648 20.2108 62.3324 20.5087 61.9666 20.5087V21.8595C63.0961 21.8595 63.9988 20.9389 63.9988 19.7995H62.648ZM61.9666 3.83863C61.77 3.83863 61.5868 3.76066 61.475 3.64877L60.5198 4.60392C60.9064 4.99048 61.4431 5.18942 61.9666 5.18942V3.83863ZM61.475 3.64877C61.3385 3.51231 61.2574 3.31926 61.2574 3.15716H59.9066C59.9066 3.71502 60.1578 4.24195 60.5198 4.60392L61.475 3.64877ZM61.2574 3.15716C61.2574 2.99505 61.3385 2.80201 61.475 2.66554L60.5198 1.7104C60.1578 2.07237 59.9066 2.59929 59.9066 3.15716H61.2574ZM61.475 2.66555C61.6114 2.52908 61.8045 2.448 61.9666 2.448V1.09721C61.4087 1.09721 60.8818 1.34843 60.5198 1.71039L61.475 2.66555ZM61.9666 2.448C62.1287 2.448 62.3217 2.52908 62.4582 2.66555L63.4133 1.71039C63.0514 1.34843 62.5244 1.09721 61.9666 1.09721V2.448ZM62.4582 2.66554C62.5701 2.77743 62.648 2.96062 62.648 3.15716H63.9988C63.9988 2.63373 63.7999 2.09695 63.4133 1.7104L62.4582 2.66554ZM62.648 3.15716C62.648 3.3537 62.5701 3.53689 62.4582 3.64877L63.4133 4.60392C63.7999 4.21737 63.9988 3.68059 63.9988 3.15716H62.648ZM62.4582 3.64877C62.3463 3.76066 62.1631 3.83863 61.9666 3.83863V5.18942C62.49 5.18942 63.0268 4.99048 63.4133 4.60392L62.4582 3.64877ZM74.9392 14.2059L74.4046 13.7932L74.086 14.2059L74.4046 14.6186L74.9392 14.2059ZM78.5944 18.9411L78.0598 19.3538L78.06 19.3541L78.5944 18.9411ZM78.3452 20.8518L77.948 20.3056L77.9392 20.312L77.9306 20.3186L78.3452 20.8518ZM76.4345 20.6302L75.9006 21.0439L75.908 21.0534L75.9157 21.0626L76.4345 20.6302ZM73.1947 16.4489L73.7286 16.0352L73.1947 15.3462L72.6608 16.0352L73.1947 16.4489ZM69.9548 20.6302L70.4737 21.0626L70.4813 21.0534L70.4887 21.0439L69.9548 20.6302ZM68.0441 20.8518L68.4588 20.3186L68.4502 20.312L68.4414 20.3056L68.0441 20.8518ZM67.7949 18.9411L68.3293 19.3541L68.3295 19.3538L67.7949 18.9411ZM71.4501 14.2059L71.9848 14.6186L72.3033 14.2059L71.9848 13.7932L71.4501 14.2059ZM67.7949 9.47073L68.3295 9.05803L68.3293 9.05776L67.7949 9.47073ZM68.0441 7.53235L68.4571 8.06678L68.4631 8.06211L68.4691 8.0573L68.0441 7.53235ZM69.9548 7.78157L69.4204 8.19454L69.4209 8.19524L69.9548 7.78157ZM73.1947 11.9629L72.6608 12.3766L73.1947 13.0656L73.7286 12.3766L73.1947 11.9629ZM76.4345 7.78157L76.9684 8.19524L76.969 8.19454L76.4345 7.78157ZM78.3452 7.53235L77.9203 8.0573L77.9262 8.06211L77.9322 8.06678L78.3452 7.53235ZM78.5944 9.47073L78.06 9.05776L78.0598 9.05803L78.5944 9.47073ZM74.4046 14.6186L78.0598 19.3538L79.1291 18.5284L75.4738 13.7932L74.4046 14.6186ZM78.06 19.3541C78.3081 19.6752 78.236 20.0961 77.948 20.3056L78.7425 21.398C79.6728 20.7214 79.8222 19.4254 79.1289 18.5281L78.06 19.3541ZM77.9306 20.3186C77.7778 20.4375 77.6431 20.481 77.5145 20.481V21.8318C77.9951 21.8318 78.4142 21.6537 78.7599 21.3849L77.9306 20.3186ZM77.5145 20.481C77.3172 20.481 77.1137 20.3902 76.9534 20.1979L75.9157 21.0626C76.3092 21.5348 76.8811 21.8318 77.5145 21.8318V20.481ZM76.9684 20.2166L73.7286 16.0352L72.6608 16.8626L75.9006 21.0439L76.9684 20.2166ZM72.6608 16.0352L69.4209 20.2166L70.4887 21.0439L73.7286 16.8626L72.6608 16.0352ZM69.436 20.1979C69.2757 20.3902 69.0722 20.481 68.8749 20.481V21.8318C69.5083 21.8318 70.0801 21.5348 70.4737 21.0626L69.436 20.1979ZM68.8749 20.481C68.7462 20.481 68.6115 20.4375 68.4588 20.3186L67.6295 21.3849C67.9752 21.6537 68.3943 21.8318 68.8749 21.8318V20.481ZM68.4414 20.3056C68.1533 20.0961 68.0812 19.6752 68.3293 19.3541L67.2605 18.5281C66.5671 19.4254 66.7165 20.7214 67.6469 21.398L68.4414 20.3056ZM68.3295 19.3538L71.9848 14.6186L70.9155 13.7932L67.2603 18.5284L68.3295 19.3538ZM71.9848 13.7932L68.3295 9.05803L67.2603 9.88343L70.9155 14.6186L71.9848 13.7932ZM68.3293 9.05776C68.0871 8.74422 68.1425 8.30984 68.4571 8.06678L67.6312 6.99792C66.7273 7.69636 66.5613 8.97883 67.2605 9.8837L68.3293 9.05776ZM68.4691 8.0573C68.743 7.83555 69.171 7.87181 69.4204 8.19454L70.4892 7.36861C69.7971 6.47293 68.5083 6.28766 67.6192 7.00741L68.4691 8.0573ZM69.4209 8.19524L72.6608 12.3766L73.7286 11.5493L70.4887 7.3679L69.4209 8.19524ZM73.7286 12.3766L76.9684 8.19524L75.9006 7.3679L72.6608 11.5493L73.7286 12.3766ZM76.969 8.19454C77.2183 7.87181 77.6463 7.83555 77.9203 8.0573L78.7702 7.00741C77.8811 6.28766 76.5922 6.47293 75.9001 7.36861L76.969 8.19454ZM77.9322 8.06678C78.2468 8.30984 78.3023 8.74422 78.06 9.05776L79.1289 9.8837C79.8281 8.97883 79.662 7.69636 78.7582 6.99792L77.9322 8.06678ZM78.0598 9.05803L74.4046 13.7932L75.4738 14.6186L79.1291 9.88343L78.0598 9.05803ZM85.8002 19.8549L86.2095 19.3177L85.1248 18.4912V19.8549H85.8002ZM90.0092 20.5917C88.582 20.5917 87.2576 20.1162 86.2095 19.3177L85.3909 20.3921C86.6688 21.3658 88.2796 21.9425 90.0092 21.9425V20.5917ZM85.1248 19.8549V26.75H86.4756V19.8549H85.1248ZM85.1248 26.75C85.1248 27.1246 84.818 27.4314 84.4433 27.4314V28.7822C85.564 28.7822 86.4756 27.8706 86.4756 26.75H85.1248ZM84.4433 27.4314C84.032 27.4314 83.7341 27.1157 83.7341 26.75H82.3834C82.3834 27.8795 83.3039 28.7822 84.4433 28.7822V27.4314ZM83.7341 26.75V14.3444H82.3834V26.75H83.7341ZM83.7341 14.3444V14.3167H82.3834V14.3444H83.7341ZM83.7341 14.3167C83.7341 10.8683 86.5609 8.0416 90.0092 8.0416V6.69081C85.8148 6.69081 82.3834 10.1223 82.3834 14.3167H83.7341ZM90.0092 8.0416C93.4835 8.0416 96.2843 10.8666 96.2843 14.3167H97.6351C97.6351 10.124 94.233 6.69081 90.0092 6.69081V8.0416ZM96.2843 14.3167C96.2843 17.7927 93.4853 20.5917 90.0092 20.5917V21.9425C94.2313 21.9425 97.6351 18.5387 97.6351 14.3167H96.2843ZM90.0092 9.43223C87.3102 9.43223 85.1248 11.6176 85.1248 14.3167H86.4756C86.4756 12.3636 88.0562 10.783 90.0092 10.783V9.43223ZM85.1248 14.3167V14.3444H86.4756V14.3167H85.1248ZM85.1248 14.3444C85.1248 17.0186 87.3131 19.2011 90.0092 19.2011V17.8503C88.0533 17.8503 86.4756 16.2668 86.4756 14.3444H85.1248ZM90.0092 19.2011C92.7083 19.2011 94.8937 17.0157 94.8937 14.3167H93.5429C93.5429 16.2697 91.9623 17.8503 90.0092 17.8503V19.2011ZM94.8937 14.3167C94.8937 11.6482 92.7112 9.43223 90.0092 9.43223V10.783C91.9594 10.783 93.5429 12.3884 93.5429 14.3167H94.8937ZM107.997 7.95852C108.408 7.95852 108.706 8.27422 108.706 8.64H110.057C110.057 7.51045 109.137 6.60774 107.997 6.60774V7.95852ZM108.706 8.64C108.706 9.02346 108.391 9.34916 107.997 9.34916V10.6999C109.154 10.6999 110.057 9.75185 110.057 8.64H108.706ZM107.997 9.34916C105.298 9.34916 103.113 11.5345 103.113 14.2336H104.464C104.464 12.2806 106.044 10.6999 107.997 10.6999V9.34916ZM103.113 14.2336V19.7995H104.464V14.2336H103.113ZM103.113 19.7995C103.113 20.192 102.788 20.5087 102.431 20.5087V21.8595C103.57 21.8595 104.464 20.9024 104.464 19.7995H103.113ZM102.431 20.5087C102.038 20.5087 101.722 20.183 101.722 19.7995H100.371C100.371 20.9114 101.274 21.8595 102.431 21.8595V20.5087ZM101.722 19.7995V14.2336H100.371V19.7995H101.722ZM101.722 14.2336C101.722 10.7593 104.547 7.95852 107.997 7.95852V6.60774C103.805 6.60774 100.371 10.0098 100.371 14.2336H101.722ZM118.737 20.481C115.289 20.481 112.462 17.6543 112.462 14.2059H111.111C111.111 18.4003 114.543 21.8318 118.737 21.8318V20.481ZM112.462 14.2059C112.462 10.7316 115.287 7.93083 118.737 7.93083V6.58005C114.545 6.58005 111.111 9.98209 111.111 14.2059H112.462ZM118.737 7.93083C122.213 7.93083 125.012 10.7299 125.012 14.2059H126.363C126.363 9.98384 122.959 6.58005 118.737 6.58005V7.93083ZM125.012 14.2059C125.012 17.656 122.212 20.481 118.737 20.481V21.8318C122.961 21.8318 126.363 18.3985 126.363 14.2059H125.012ZM118.737 9.32147C116.038 9.32147 113.853 11.5068 113.853 14.2059H115.204C115.204 12.2529 116.784 10.6723 118.737 10.6723V9.32147ZM113.853 14.2059C113.853 16.8744 116.035 19.0903 118.737 19.0903V17.7396C116.787 17.7396 115.204 16.1341 115.204 14.2059H113.853ZM118.737 19.0903C121.439 19.0903 123.622 16.8744 123.622 14.2059H122.271C122.271 16.1341 120.687 17.7396 118.737 17.7396V19.0903ZM123.622 14.2059C123.622 11.5068 121.436 9.32147 118.737 9.32147V10.6723C120.69 10.6723 122.271 12.2529 122.271 14.2059H123.622Z" fill="white" mask="url(#path-1-outside-1_177_2497)"/>
<rect x="2.70154" y="0.831787" width="4.39005" height="4.39005" rx="2.19503" fill="#3EDBFE"/>
<path d="M3.71463 28.8606C23.5919 34.9766 75.7342 43.539 125.285 28.8606" stroke="#3EDBFE" stroke-width="2.02618" stroke-linecap="square"/>
</svg>
