<svg width="129" height="39" viewBox="0 0 129 39" fill="none" xmlns="http://www.w3.org/2000/svg">
<mask id="path-1-outside-1_138_1054" maskUnits="userSpaceOnUse" x="2.70117" y="0.15625" width="124" height="29" fill="black">
<rect fill="white" x="2.70117" y="0.15625" width="124" height="29"/>
<path d="M4.94415 21.1839C4.1688 21.1839 3.5596 20.5747 3.5596 19.7994V8.63987C3.5596 7.89221 4.1688 7.28301 4.94415 7.28301C5.69181 7.28301 6.30101 7.89221 6.30101 8.63987V19.7994C6.30101 20.5747 5.69181 21.1839 4.94415 21.1839ZM4.94415 4.5139C4.58417 4.5139 4.22418 4.37545 3.97496 4.12623C3.72574 3.87701 3.5596 3.51702 3.5596 3.15704C3.5596 2.79705 3.72574 2.43707 3.97496 2.18785C4.22418 1.93863 4.58417 1.77248 4.94415 1.77248C5.30413 1.77248 5.66412 1.93863 5.91334 2.18785C6.16256 2.43707 6.30101 2.79705 6.30101 3.15704C6.30101 3.51702 6.16256 3.87701 5.91334 4.12623C5.66412 4.37545 5.30413 4.5139 4.94415 4.5139ZM17.3257 7.25532C21.1471 7.25532 24.2762 10.3567 24.2762 14.2058V19.7717C24.2762 20.547 23.667 21.1562 22.8917 21.1562C22.144 21.1562 21.5348 20.547 21.5348 19.7717V14.2058C21.5348 11.8797 19.6518 9.99674 17.3257 9.99674C14.9997 9.99674 13.1167 11.8797 13.1167 14.2058V19.7717C13.1167 20.547 12.5075 21.1562 11.7321 21.1562C10.9845 21.1562 10.3753 20.547 10.3753 19.7717V14.2058C10.3753 10.3567 13.5044 7.25532 17.3257 7.25532ZM35.3401 21.1562C31.5187 21.1562 28.3896 18.0272 28.3896 14.2058C28.3896 10.3567 31.5187 7.25532 35.3401 7.25532C39.1892 7.25532 42.2906 10.3567 42.2906 14.2058C42.2906 18.0272 39.1892 21.1562 35.3401 21.1562ZM35.3401 9.99674C33.0141 9.99674 31.1311 11.8797 31.1311 14.2058C31.1311 16.5041 33.0141 18.4148 35.3401 18.4148C37.6662 18.4148 39.5492 16.5041 39.5492 14.2058C39.5492 11.8797 37.6662 9.99674 35.3401 9.99674ZM55.4707 7.39378C56.1906 7.64299 56.5506 8.44604 56.2737 9.166L52.12 20.2424C51.8985 20.7963 51.3724 21.1562 50.8186 21.1562C50.7909 21.1562 50.7909 21.1562 50.7909 21.1562C50.2094 21.1562 49.6832 20.7686 49.4894 20.2424L45.3357 9.166C45.0588 8.44604 45.4188 7.64299 46.1388 7.39378C46.8587 7.11686 47.6341 7.47685 47.911 8.19682L50.8186 15.9226L53.6984 8.19682C53.9753 7.47685 54.7507 7.11686 55.4707 7.39378ZM61.9662 21.1839C61.1908 21.1839 60.5816 20.5747 60.5816 19.7994V8.63987C60.5816 7.89221 61.1908 7.28301 61.9662 7.28301C62.7138 7.28301 63.323 7.89221 63.323 8.63987V19.7994C63.323 20.5747 62.7138 21.1839 61.9662 21.1839ZM61.9662 4.5139C61.6062 4.5139 61.2462 4.37545 60.997 4.12623C60.7478 3.87701 60.5816 3.51702 60.5816 3.15704C60.5816 2.79705 60.7478 2.43707 60.997 2.18785C61.2462 1.93863 61.6062 1.77248 61.9662 1.77248C62.3262 1.77248 62.6861 1.93863 62.9354 2.18785C63.1846 2.43707 63.323 2.79705 63.323 3.15704C63.323 3.51702 63.1846 3.87701 62.9354 4.12623C62.6861 4.37545 62.3262 4.5139 61.9662 4.5139ZM74.9388 14.2058L78.594 18.941C79.0648 19.5502 78.954 20.4086 78.3448 20.8516C78.0956 21.0455 77.8187 21.1562 77.5141 21.1562C77.0987 21.1562 76.711 20.9624 76.4341 20.6301L73.1943 16.4488L69.9544 20.6301C69.6775 20.9624 69.2898 21.1562 68.8745 21.1562C68.5699 21.1562 68.2929 21.0455 68.0437 20.8516C67.4345 20.4086 67.3238 19.5502 67.7945 18.941L71.4497 14.2058L67.7945 9.47061C67.3238 8.8614 67.4345 8.00298 68.0437 7.53223C68.6252 7.06148 69.4837 7.17225 69.9544 7.78145L73.1943 11.9628L76.4341 7.78145C76.9049 7.17225 77.7633 7.06148 78.3448 7.53223C78.954 8.00298 79.0648 8.8614 78.594 9.47061L74.9388 14.2058ZM90.0088 21.267C88.4304 21.267 86.9628 20.7409 85.7998 19.8548V26.7499C85.7998 27.4975 85.1906 28.1067 84.4429 28.1067C83.6676 28.1067 83.0584 27.4975 83.0584 26.7499V14.3442V14.3165C83.0584 10.4952 86.1874 7.36608 90.0088 7.36608C93.8579 7.36608 96.9593 10.4952 96.9593 14.3165C96.9593 18.1656 93.8579 21.267 90.0088 21.267ZM90.0088 10.1075C87.6828 10.1075 85.7998 11.9905 85.7998 14.3165V14.3442C85.7998 16.6426 87.6828 18.5256 90.0088 18.5256C92.3349 18.5256 94.2179 16.6426 94.2179 14.3165C94.2179 12.0182 92.3349 10.1075 90.0088 10.1075ZM107.997 7.28301C108.772 7.28301 109.381 7.89221 109.381 8.63987C109.381 9.38753 108.772 10.0244 107.997 10.0244C105.671 10.0244 103.788 11.9074 103.788 14.2335V19.7994C103.788 20.547 103.179 21.1839 102.431 21.1839C101.656 21.1839 101.046 20.547 101.046 19.7994V14.2335C101.046 10.3844 104.175 7.28301 107.997 7.28301ZM118.737 21.1562C114.915 21.1562 111.786 18.0272 111.786 14.2058C111.786 10.3567 114.915 7.25532 118.737 7.25532C122.586 7.25532 125.687 10.3567 125.687 14.2058C125.687 18.0272 122.586 21.1562 118.737 21.1562ZM118.737 9.99674C116.411 9.99674 114.528 11.8797 114.528 14.2058C114.528 16.5041 116.411 18.4148 118.737 18.4148C121.063 18.4148 122.946 16.5041 122.946 14.2058C122.946 11.8797 121.063 9.99674 118.737 9.99674Z"/>
</mask>
<path d="M4.94415 21.1839C4.1688 21.1839 3.5596 20.5747 3.5596 19.7994V8.63987C3.5596 7.89221 4.1688 7.28301 4.94415 7.28301C5.69181 7.28301 6.30101 7.89221 6.30101 8.63987V19.7994C6.30101 20.5747 5.69181 21.1839 4.94415 21.1839ZM4.94415 4.5139C4.58417 4.5139 4.22418 4.37545 3.97496 4.12623C3.72574 3.87701 3.5596 3.51702 3.5596 3.15704C3.5596 2.79705 3.72574 2.43707 3.97496 2.18785C4.22418 1.93863 4.58417 1.77248 4.94415 1.77248C5.30413 1.77248 5.66412 1.93863 5.91334 2.18785C6.16256 2.43707 6.30101 2.79705 6.30101 3.15704C6.30101 3.51702 6.16256 3.87701 5.91334 4.12623C5.66412 4.37545 5.30413 4.5139 4.94415 4.5139ZM17.3257 7.25532C21.1471 7.25532 24.2762 10.3567 24.2762 14.2058V19.7717C24.2762 20.547 23.667 21.1562 22.8917 21.1562C22.144 21.1562 21.5348 20.547 21.5348 19.7717V14.2058C21.5348 11.8797 19.6518 9.99674 17.3257 9.99674C14.9997 9.99674 13.1167 11.8797 13.1167 14.2058V19.7717C13.1167 20.547 12.5075 21.1562 11.7321 21.1562C10.9845 21.1562 10.3753 20.547 10.3753 19.7717V14.2058C10.3753 10.3567 13.5044 7.25532 17.3257 7.25532ZM35.3401 21.1562C31.5187 21.1562 28.3896 18.0272 28.3896 14.2058C28.3896 10.3567 31.5187 7.25532 35.3401 7.25532C39.1892 7.25532 42.2906 10.3567 42.2906 14.2058C42.2906 18.0272 39.1892 21.1562 35.3401 21.1562ZM35.3401 9.99674C33.0141 9.99674 31.1311 11.8797 31.1311 14.2058C31.1311 16.5041 33.0141 18.4148 35.3401 18.4148C37.6662 18.4148 39.5492 16.5041 39.5492 14.2058C39.5492 11.8797 37.6662 9.99674 35.3401 9.99674ZM55.4707 7.39378C56.1906 7.64299 56.5506 8.44604 56.2737 9.166L52.12 20.2424C51.8985 20.7963 51.3724 21.1562 50.8186 21.1562C50.7909 21.1562 50.7909 21.1562 50.7909 21.1562C50.2094 21.1562 49.6832 20.7686 49.4894 20.2424L45.3357 9.166C45.0588 8.44604 45.4188 7.64299 46.1388 7.39378C46.8587 7.11686 47.6341 7.47685 47.911 8.19682L50.8186 15.9226L53.6984 8.19682C53.9753 7.47685 54.7507 7.11686 55.4707 7.39378ZM61.9662 21.1839C61.1908 21.1839 60.5816 20.5747 60.5816 19.7994V8.63987C60.5816 7.89221 61.1908 7.28301 61.9662 7.28301C62.7138 7.28301 63.323 7.89221 63.323 8.63987V19.7994C63.323 20.5747 62.7138 21.1839 61.9662 21.1839ZM61.9662 4.5139C61.6062 4.5139 61.2462 4.37545 60.997 4.12623C60.7478 3.87701 60.5816 3.51702 60.5816 3.15704C60.5816 2.79705 60.7478 2.43707 60.997 2.18785C61.2462 1.93863 61.6062 1.77248 61.9662 1.77248C62.3262 1.77248 62.6861 1.93863 62.9354 2.18785C63.1846 2.43707 63.323 2.79705 63.323 3.15704C63.323 3.51702 63.1846 3.87701 62.9354 4.12623C62.6861 4.37545 62.3262 4.5139 61.9662 4.5139ZM74.9388 14.2058L78.594 18.941C79.0648 19.5502 78.954 20.4086 78.3448 20.8516C78.0956 21.0455 77.8187 21.1562 77.5141 21.1562C77.0987 21.1562 76.711 20.9624 76.4341 20.6301L73.1943 16.4488L69.9544 20.6301C69.6775 20.9624 69.2898 21.1562 68.8745 21.1562C68.5699 21.1562 68.2929 21.0455 68.0437 20.8516C67.4345 20.4086 67.3238 19.5502 67.7945 18.941L71.4497 14.2058L67.7945 9.47061C67.3238 8.8614 67.4345 8.00298 68.0437 7.53223C68.6252 7.06148 69.4837 7.17225 69.9544 7.78145L73.1943 11.9628L76.4341 7.78145C76.9049 7.17225 77.7633 7.06148 78.3448 7.53223C78.954 8.00298 79.0648 8.8614 78.594 9.47061L74.9388 14.2058ZM90.0088 21.267C88.4304 21.267 86.9628 20.7409 85.7998 19.8548V26.7499C85.7998 27.4975 85.1906 28.1067 84.4429 28.1067C83.6676 28.1067 83.0584 27.4975 83.0584 26.7499V14.3442V14.3165C83.0584 10.4952 86.1874 7.36608 90.0088 7.36608C93.8579 7.36608 96.9593 10.4952 96.9593 14.3165C96.9593 18.1656 93.8579 21.267 90.0088 21.267ZM90.0088 10.1075C87.6828 10.1075 85.7998 11.9905 85.7998 14.3165V14.3442C85.7998 16.6426 87.6828 18.5256 90.0088 18.5256C92.3349 18.5256 94.2179 16.6426 94.2179 14.3165C94.2179 12.0182 92.3349 10.1075 90.0088 10.1075ZM107.997 7.28301C108.772 7.28301 109.381 7.89221 109.381 8.63987C109.381 9.38753 108.772 10.0244 107.997 10.0244C105.671 10.0244 103.788 11.9074 103.788 14.2335V19.7994C103.788 20.547 103.179 21.1839 102.431 21.1839C101.656 21.1839 101.046 20.547 101.046 19.7994V14.2335C101.046 10.3844 104.175 7.28301 107.997 7.28301ZM118.737 21.1562C114.915 21.1562 111.786 18.0272 111.786 14.2058C111.786 10.3567 114.915 7.25532 118.737 7.25532C122.586 7.25532 125.687 10.3567 125.687 14.2058C125.687 18.0272 122.586 21.1562 118.737 21.1562ZM118.737 9.99674C116.411 9.99674 114.528 11.8797 114.528 14.2058C114.528 16.5041 116.411 18.4148 118.737 18.4148C121.063 18.4148 122.946 16.5041 122.946 14.2058C122.946 11.8797 121.063 9.99674 118.737 9.99674Z" fill="#475467"/>
<path d="M3.97496 4.12623L4.45254 3.64865H4.45254L3.97496 4.12623ZM3.97496 2.18785L3.49739 1.71027L3.49739 1.71027L3.97496 2.18785ZM5.91334 2.18785L6.39091 1.71027L6.39091 1.71027L5.91334 2.18785ZM4.94415 20.5085C4.54181 20.5085 4.23499 20.2017 4.23499 19.7994H2.8842C2.8842 20.9477 3.79579 21.8593 4.94415 21.8593V20.5085ZM4.23499 19.7994V8.63987H2.8842V19.7994H4.23499ZM4.23499 8.63987C4.23499 8.2741 4.53287 7.9584 4.94415 7.9584V6.60762C3.80473 6.60762 2.8842 7.51033 2.8842 8.63987H4.23499ZM4.94415 7.9584C5.3188 7.9584 5.62562 8.26522 5.62562 8.63987H6.97641C6.97641 7.51921 6.06482 6.60762 4.94415 6.60762V7.9584ZM5.62562 8.63987V19.7994H6.97641V8.63987H5.62562ZM5.62562 19.7994C5.62562 20.2107 5.30993 20.5085 4.94415 20.5085V21.8593C6.07369 21.8593 6.97641 20.9388 6.97641 19.7994H5.62562ZM4.94415 3.83851C4.74761 3.83851 4.56442 3.76054 4.45254 3.64865L3.49739 4.6038C3.88394 4.99036 4.42072 5.18929 4.94415 5.18929V3.83851ZM4.45254 3.64865C4.31607 3.51218 4.23499 3.31914 4.23499 3.15704H2.8842C2.8842 3.7149 3.13541 4.24183 3.49739 4.6038L4.45254 3.64865ZM4.23499 3.15704C4.23499 2.99493 4.31607 2.80189 4.45254 2.66542L3.49739 1.71027C3.13541 2.07225 2.8842 2.59917 2.8842 3.15704H4.23499ZM4.45254 2.66542C4.589 2.52896 4.78205 2.44787 4.94415 2.44787V1.09709C4.38629 1.09709 3.85936 1.3483 3.49739 1.71027L4.45254 2.66542ZM4.94415 2.44787C5.10625 2.44787 5.2993 2.52896 5.43577 2.66542L6.39091 1.71027C6.02894 1.3483 5.50202 1.09709 4.94415 1.09709V2.44787ZM5.43576 2.66542C5.54765 2.77731 5.62562 2.96049 5.62562 3.15704H6.97641C6.97641 2.63361 6.77747 2.09683 6.39091 1.71027L5.43576 2.66542ZM5.62562 3.15704C5.62562 3.35358 5.54765 3.53677 5.43576 3.64865L6.39091 4.6038C6.77747 4.21725 6.97641 3.68046 6.97641 3.15704H5.62562ZM5.43576 3.64865C5.32388 3.76054 5.14069 3.83851 4.94415 3.83851V5.18929C5.46758 5.18929 6.00436 4.99036 6.39091 4.6038L5.43576 3.64865ZM17.3257 7.93071C20.7759 7.93071 23.6008 10.7315 23.6008 14.2058H24.9516C24.9516 9.98196 21.5184 6.57993 17.3257 6.57993V7.93071ZM23.6008 14.2058V19.7717H24.9516V14.2058H23.6008ZM23.6008 19.7717C23.6008 20.174 23.294 20.4809 22.8917 20.4809V21.8316C24.04 21.8316 24.9516 20.9201 24.9516 19.7717H23.6008ZM22.8917 20.4809C22.5259 20.4809 22.2102 20.183 22.2102 19.7717H20.8594C20.8594 20.9111 21.7621 21.8316 22.8917 21.8316V20.4809ZM22.2102 19.7717V14.2058H20.8594V19.7717H22.2102ZM22.2102 14.2058C22.2102 11.5067 20.0248 9.32135 17.3257 9.32135V10.6721C19.2788 10.6721 20.8594 12.2527 20.8594 14.2058H22.2102ZM17.3257 9.32135C14.6267 9.32135 12.4413 11.5067 12.4413 14.2058H13.7921C13.7921 12.2527 15.3727 10.6721 17.3257 10.6721V9.32135ZM12.4413 14.2058V19.7717H13.7921V14.2058H12.4413ZM12.4413 19.7717C12.4413 20.174 12.1345 20.4809 11.7321 20.4809V21.8316C12.8805 21.8316 13.7921 20.9201 13.7921 19.7717H12.4413ZM11.7321 20.4809C11.3664 20.4809 11.0507 20.183 11.0507 19.7717H9.69989C9.69989 20.9111 10.6026 21.8316 11.7321 21.8316V20.4809ZM11.0507 19.7717V14.2058H9.69989V19.7717H11.0507ZM11.0507 14.2058C11.0507 10.7315 13.8756 7.93071 17.3257 7.93071V6.57993C13.1331 6.57993 9.69989 9.98196 9.69989 14.2058H11.0507ZM35.3401 20.4809C31.8917 20.4809 29.065 17.6541 29.065 14.2058H27.7142C27.7142 18.4002 31.1457 21.8316 35.3401 21.8316V20.4809ZM29.065 14.2058C29.065 10.7315 31.89 7.93071 35.3401 7.93071V6.57993C31.1475 6.57993 27.7142 9.98196 27.7142 14.2058H29.065ZM35.3401 7.93071C38.8162 7.93071 41.6152 10.7297 41.6152 14.2058H42.966C42.966 9.98371 39.5622 6.57993 35.3401 6.57993V7.93071ZM41.6152 14.2058C41.6152 17.6559 38.8144 20.4809 35.3401 20.4809V21.8316C39.5639 21.8316 42.966 18.3984 42.966 14.2058H41.6152ZM35.3401 9.32135C32.641 9.32135 30.4557 11.5067 30.4557 14.2058H31.8064C31.8064 12.2527 33.3871 10.6721 35.3401 10.6721V9.32135ZM30.4557 14.2058C30.4557 16.8743 32.6382 19.0902 35.3401 19.0902V17.7394C33.3899 17.7394 31.8064 16.134 31.8064 14.2058H30.4557ZM35.3401 19.0902C38.042 19.0902 40.2245 16.8743 40.2245 14.2058H38.8738C38.8738 16.134 37.2903 17.7394 35.3401 17.7394V19.0902ZM40.2245 14.2058C40.2245 11.5067 38.0392 9.32135 35.3401 9.32135V10.6721C37.2931 10.6721 38.8738 12.2527 38.8738 14.2058H40.2245ZM55.4707 7.39378L55.2282 8.02415L55.2389 8.02826L55.2497 8.03201L55.4707 7.39378ZM56.2737 9.16601L55.6433 8.92354L55.6413 8.92886L56.2737 9.16601ZM52.12 20.2424L52.7471 20.4933L52.7499 20.4865L52.7524 20.4796L52.12 20.2424ZM49.4894 20.2424L50.1231 20.009L50.1218 20.0053L49.4894 20.2424ZM45.3357 9.16601L45.9681 8.92885L45.9661 8.92355L45.3357 9.16601ZM46.1388 7.39378L46.3597 8.03201L46.3705 8.02826L46.3812 8.02415L46.1388 7.39378ZM47.911 8.19682L48.5431 7.95892L48.5414 7.95436L47.911 8.19682ZM50.8186 15.9226L50.1864 16.1605L50.8216 17.8482L51.4514 16.1585L50.8186 15.9226ZM53.6984 8.19682L53.068 7.95435L53.0656 7.96091L53.6984 8.19682ZM55.2497 8.03201C55.5953 8.15164 55.7883 8.54675 55.6433 8.92355L56.9041 9.40846C57.313 8.34533 56.7859 7.13435 55.6916 6.75554L55.2497 8.03201ZM55.6413 8.92886L51.4876 20.0053L52.7524 20.4796L56.9061 9.40315L55.6413 8.92886ZM51.493 19.9916C51.3685 20.3028 51.0816 20.4809 50.8186 20.4809V21.8316C51.6631 21.8316 52.4286 21.2897 52.7471 20.4933L51.493 19.9916ZM50.8186 20.4809C50.8185 20.4809 50.8185 20.4809 50.8184 20.4809C50.8183 20.4809 50.8183 20.4809 50.8182 20.4809C50.8182 20.4809 50.8181 20.4809 50.8181 20.4809C50.818 20.4809 50.818 20.4809 50.8179 20.4809C50.8179 20.4809 50.8178 20.4809 50.8178 20.4809C50.8177 20.4809 50.8176 20.4809 50.8176 20.4809C50.8175 20.4809 50.8175 20.4809 50.8174 20.4809C50.8174 20.4809 50.8173 20.4809 50.8173 20.4809C50.8172 20.4809 50.8172 20.4809 50.8171 20.4809C50.8171 20.4809 50.817 20.4809 50.817 20.4809C50.8169 20.4809 50.8169 20.4809 50.8168 20.4809C50.8168 20.4809 50.8167 20.4809 50.8167 20.4809C50.8166 20.4809 50.8166 20.4809 50.8165 20.4809C50.8165 20.4809 50.8164 20.4809 50.8163 20.4809C50.8163 20.4809 50.8162 20.4809 50.8162 20.4809C50.8161 20.4809 50.8161 20.4809 50.816 20.4809C50.816 20.4809 50.8159 20.4809 50.8159 20.4809C50.8158 20.4809 50.8158 20.4809 50.8157 20.4809C50.8157 20.4809 50.8156 20.4809 50.8156 20.4809C50.8155 20.4809 50.8155 20.4809 50.8154 20.4809C50.8154 20.4809 50.8153 20.4809 50.8153 20.4809C50.8152 20.4809 50.8152 20.4809 50.8151 20.4809C50.8151 20.4809 50.815 20.4809 50.815 20.4809C50.8149 20.4809 50.8149 20.4809 50.8148 20.4809C50.8148 20.4809 50.8147 20.4809 50.8147 20.4809C50.8146 20.4809 50.8146 20.4809 50.8145 20.4809C50.8145 20.4809 50.8145 20.4809 50.8144 20.4809C50.8144 20.4809 50.8143 20.4809 50.8143 20.4809C50.8142 20.4809 50.8142 20.4809 50.8141 20.4809C50.8141 20.4809 50.814 20.4809 50.814 20.4809C50.8139 20.4809 50.8139 20.4809 50.8138 20.4809C50.8138 20.4809 50.8137 20.4809 50.8137 20.4809C50.8136 20.4809 50.8136 20.4809 50.8135 20.4809C50.8135 20.4809 50.8134 20.4809 50.8134 20.4809C50.8134 20.4809 50.8133 20.4809 50.8133 20.4809C50.8132 20.4809 50.8132 20.4809 50.8131 20.4809C50.8131 20.4809 50.813 20.4809 50.813 20.4809C50.8129 20.4809 50.8129 20.4809 50.8128 20.4809C50.8128 20.4809 50.8127 20.4809 50.8127 20.4809C50.8127 20.4809 50.8126 20.4809 50.8126 20.4809C50.8125 20.4809 50.8125 20.4809 50.8124 20.4809C50.8124 20.4809 50.8123 20.4809 50.8123 20.4809C50.8122 20.4809 50.8122 20.4809 50.8121 20.4809C50.8121 20.4809 50.8121 20.4809 50.812 20.4809C50.812 20.4809 50.8119 20.4809 50.8119 20.4809C50.8118 20.4809 50.8118 20.4809 50.8117 20.4809C50.8117 20.4809 50.8117 20.4809 50.8116 20.4809C50.8116 20.4809 50.8115 20.4809 50.8115 20.4809C50.8114 20.4809 50.8114 20.4809 50.8113 20.4809C50.8113 20.4809 50.8113 20.4809 50.8112 20.4809C50.8112 20.4809 50.8111 20.4809 50.8111 20.4809C50.811 20.4809 50.811 20.4809 50.8109 20.4809C50.8109 20.4809 50.8109 20.4809 50.8108 20.4809C50.8108 20.4809 50.8107 20.4809 50.8107 20.4809C50.8106 20.4809 50.8106 20.4809 50.8106 20.4809C50.8105 20.4809 50.8105 20.4809 50.8104 20.4809C50.8104 20.4809 50.8103 20.4809 50.8103 20.4809C50.8103 20.4809 50.8102 20.4809 50.8102 20.4809C50.8101 20.4809 50.8101 20.4809 50.81 20.4809C50.81 20.4809 50.81 20.4809 50.8099 20.4809C50.8099 20.4809 50.8098 20.4809 50.8098 20.4809C50.8097 20.4809 50.8097 20.4809 50.8097 20.4809C50.8096 20.4809 50.8096 20.4809 50.8095 20.4809C50.8095 20.4809 50.8095 20.4809 50.8094 20.4809C50.8094 20.4809 50.8093 20.4809 50.8093 20.4809C50.8093 20.4809 50.8092 20.4809 50.8092 20.4809C50.8091 20.4809 50.8091 20.4809 50.809 20.4809C50.809 20.4809 50.809 20.4809 50.8089 20.4809C50.8089 20.4809 50.8088 20.4809 50.8088 20.4809C50.8088 20.4809 50.8087 20.4809 50.8087 20.4809C50.8086 20.4809 50.8086 20.4809 50.8086 20.4809C50.8085 20.4809 50.8085 20.4809 50.8084 20.4809C50.8084 20.4809 50.8084 20.4809 50.8083 20.4809C50.8083 20.4809 50.8082 20.4809 50.8082 20.4809C50.8082 20.4809 50.8081 20.4809 50.8081 20.4809C50.808 20.4809 50.808 20.4809 50.808 20.4809C50.8079 20.4809 50.8079 20.4809 50.8078 20.4809C50.8078 20.4809 50.8078 20.4809 50.8077 20.4809C50.8077 20.4809 50.8077 20.4809 50.8076 20.4809C50.8076 20.4809 50.8075 20.4809 50.8075 20.4809C50.8075 20.4809 50.8074 20.4809 50.8074 20.4809C50.8073 20.4809 50.8073 20.4809 50.8073 20.4809C50.8072 20.4809 50.8072 20.4809 50.8072 20.4809C50.8071 20.4809 50.8071 20.4809 50.807 20.4809C50.807 20.4809 50.807 20.4809 50.8069 20.4809C50.8069 20.4809 50.8069 20.4809 50.8068 20.4809C50.8068 20.4809 50.8067 20.4809 50.8067 20.4809C50.8067 20.4809 50.8066 20.4809 50.8066 20.4809C50.8066 20.4809 50.8065 20.4809 50.8065 20.4809C50.8064 20.4809 50.8064 20.4809 50.8064 20.4809C50.8063 20.4809 50.8063 20.4809 50.8063 20.4809C50.8062 20.4809 50.8062 20.4809 50.8062 20.4809C50.8061 20.4809 50.8061 20.4809 50.806 20.4809C50.806 20.4809 50.806 20.4809 50.8059 20.4809C50.8059 20.4809 50.8059 20.4809 50.8058 20.4809C50.8058 20.4809 50.8058 20.4809 50.8057 20.4809C50.8057 20.4809 50.8056 20.4809 50.8056 20.4809C50.8056 20.4809 50.8055 20.4809 50.8055 20.4809C50.8055 20.4809 50.8054 20.4809 50.8054 20.4809C50.8054 20.4809 50.8053 20.4809 50.8053 20.4809C50.8053 20.4809 50.8052 20.4809 50.8052 20.4809C50.8052 20.4809 50.8051 20.4809 50.8051 20.4809C50.8051 20.4809 50.805 20.4809 50.805 20.4809C50.8049 20.4809 50.8049 20.4809 50.8049 20.4809C50.8048 20.4809 50.8048 20.4809 50.8048 20.4809C50.8047 20.4809 50.8047 20.4809 50.8047 20.4809C50.8046 20.4809 50.8046 20.4809 50.8046 20.4809C50.8045 20.4809 50.8045 20.4809 50.8045 20.4809C50.8044 20.4809 50.8044 20.4809 50.8044 20.4809C50.8043 20.4809 50.8043 20.4809 50.8043 20.4809C50.8042 20.4809 50.8042 20.4809 50.8042 20.4809C50.8041 20.4809 50.8041 20.4809 50.8041 20.4809C50.804 20.4809 50.804 20.4809 50.804 20.4809C50.8039 20.4809 50.8039 20.4809 50.8039 20.4809C50.8038 20.4809 50.8038 20.4809 50.8038 20.4809C50.8037 20.4809 50.8037 20.4809 50.8037 20.4809C50.8036 20.4809 50.8036 20.4809 50.8036 20.4809C50.8036 20.4809 50.8035 20.4809 50.8035 20.4809C50.8035 20.4809 50.8034 20.4809 50.8034 20.4809C50.8034 20.4809 50.8033 20.4809 50.8033 20.4809C50.8033 20.4809 50.8032 20.4809 50.8032 20.4809C50.8032 20.4809 50.8031 20.4809 50.8031 20.4809C50.8031 20.4809 50.803 20.4809 50.803 20.4809C50.803 20.4809 50.8029 20.4809 50.8029 20.4809C50.8029 20.4809 50.8029 20.4809 50.8028 20.4809C50.8028 20.4809 50.8028 20.4809 50.8027 20.4809C50.8027 20.4809 50.8027 20.4809 50.8026 20.4809C50.8026 20.4809 50.8026 20.4809 50.8025 20.4809C50.8025 20.4809 50.8025 20.4809 50.8025 20.4809C50.8024 20.4809 50.8024 20.4809 50.8024 20.4809C50.8023 20.4809 50.8023 20.4809 50.8023 20.4809C50.8022 20.4809 50.8022 20.4809 50.8022 20.4809C50.8022 20.4809 50.8021 20.4809 50.8021 20.4809C50.8021 20.4809 50.802 20.4809 50.802 20.4809C50.802 20.4809 50.802 20.4809 50.8019 20.4809C50.8019 20.4809 50.8019 20.4809 50.8018 20.4809C50.8018 20.4809 50.8018 20.4809 50.8017 20.4809C50.8017 20.4809 50.8017 20.4809 50.8017 20.4809C50.8016 20.4809 50.8016 20.4809 50.8016 20.4809C50.8015 20.4809 50.8015 20.4809 50.8015 20.4809C50.8015 20.4809 50.8014 20.4809 50.8014 20.4809C50.8014 20.4809 50.8013 20.4809 50.8013 20.4809C50.8013 20.4809 50.8013 20.4809 50.8012 20.4809C50.8012 20.4809 50.8012 20.4809 50.8011 20.4809C50.8011 20.4809 50.8011 20.4809 50.8011 20.4809C50.801 20.4809 50.801 20.4809 50.801 20.4809C50.801 20.4809 50.8009 20.4809 50.8009 20.4809C50.8009 20.4809 50.8008 20.4809 50.8008 20.4809C50.8008 20.4809 50.8008 20.4809 50.8007 20.4809C50.8007 20.4809 50.8007 20.4809 50.8007 20.4809C50.8006 20.4809 50.8006 20.4809 50.8006 20.4809C50.8005 20.4809 50.8005 20.4809 50.8005 20.4809C50.8005 20.4809 50.8004 20.4809 50.8004 20.4809C50.8004 20.4809 50.8004 20.4809 50.8003 20.4809C50.8003 20.4809 50.8003 20.4809 50.8003 20.4809C50.8002 20.4809 50.8002 20.4809 50.8002 20.4809C50.8001 20.4809 50.8001 20.4809 50.8001 20.4809C50.8001 20.4809 50.8 20.4809 50.8 20.4809C50.8 20.4809 50.8 20.4809 50.7999 20.4809C50.7999 20.4809 50.7999 20.4809 50.7999 20.4809C50.7998 20.4809 50.7998 20.4809 50.7998 20.4809C50.7998 20.4809 50.7997 20.4809 50.7997 20.4809C50.7997 20.4809 50.7997 20.4809 50.7996 20.4809C50.7996 20.4809 50.7996 20.4809 50.7996 20.4809C50.7995 20.4809 50.7995 20.4809 50.7995 20.4809C50.7995 20.4809 50.7994 20.4809 50.7994 20.4809C50.7994 20.4809 50.7994 20.4809 50.7993 20.4809C50.7993 20.4809 50.7993 20.4809 50.7993 20.4809C50.7992 20.4809 50.7992 20.4809 50.7992 20.4809C50.7992 20.4809 50.7991 20.4809 50.7991 20.4809C50.7991 20.4809 50.7991 20.4809 50.799 20.4809C50.799 20.4809 50.799 20.4809 50.799 20.4809C50.799 20.4809 50.7989 20.4809 50.7989 20.4809C50.7989 20.4809 50.7989 20.4809 50.7988 20.4809C50.7988 20.4809 50.7988 20.4809 50.7988 20.4809C50.7987 20.4809 50.7987 20.4809 50.7987 20.4809C50.7987 20.4809 50.7986 20.4809 50.7986 20.4809C50.7986 20.4809 50.7986 20.4809 50.7986 20.4809C50.7985 20.4809 50.7985 20.4809 50.7985 20.4809C50.7985 20.4809 50.7984 20.4809 50.7984 20.4809C50.7984 20.4809 50.7984 20.4809 50.7983 20.4809C50.7983 20.4809 50.7983 20.4809 50.7983 20.4809C50.7983 20.4809 50.7982 20.4809 50.7982 20.4809C50.7982 20.4809 50.7982 20.4809 50.7981 20.4809C50.7981 20.4809 50.7981 20.4809 50.7981 20.4809C50.7981 20.4809 50.798 20.4809 50.798 20.4809C50.798 20.4809 50.798 20.4809 50.798 20.4809C50.7979 20.4809 50.7979 20.4809 50.7979 20.4809C50.7979 20.4809 50.7978 20.4809 50.7978 20.4809C50.7978 20.4809 50.7978 20.4809 50.7978 20.4809C50.7977 20.4809 50.7977 20.4809 50.7977 20.4809C50.7977 20.4809 50.7976 20.4809 50.7976 20.4809C50.7976 20.4809 50.7976 20.4809 50.7976 20.4809C50.7975 20.4809 50.7975 20.4809 50.7975 20.4809C50.7975 20.4809 50.7975 20.4809 50.7974 20.4809C50.7974 20.4809 50.7974 20.4809 50.7974 20.4809C50.7974 20.4809 50.7973 20.4809 50.7973 20.4809C50.7973 20.4809 50.7973 20.4809 50.7973 20.4809C50.7972 20.4809 50.7972 20.4809 50.7972 20.4809C50.7972 20.4809 50.7972 20.4809 50.7971 20.4809C50.7971 20.4809 50.7971 20.4809 50.7971 20.4809C50.7971 20.4809 50.797 20.4809 50.797 20.4809C50.797 20.4809 50.797 20.4809 50.797 20.4809C50.7969 20.4809 50.7969 20.4809 50.7969 20.4809C50.7969 20.4809 50.7969 20.4809 50.7968 20.4809C50.7968 20.4809 50.7968 20.4809 50.7968 20.4809C50.7968 20.4809 50.7967 20.4809 50.7967 20.4809C50.7967 20.4809 50.7967 20.4809 50.7967 20.4809C50.7966 20.4809 50.7966 20.4809 50.7966 20.4809C50.7966 20.4809 50.7966 20.4809 50.7966 20.4809C50.7965 20.4809 50.7965 20.4809 50.7965 20.4809C50.7965 20.4809 50.7965 20.4809 50.7964 20.4809C50.7964 20.4809 50.7964 20.4809 50.7964 20.4809C50.7964 20.4809 50.7963 20.4809 50.7963 20.4809C50.7963 20.4809 50.7963 20.4809 50.7963 20.4809C50.7963 20.4809 50.7962 20.4809 50.7962 20.4809C50.7962 20.4809 50.7962 20.4809 50.7962 20.4809C50.7961 20.4809 50.7961 20.4809 50.7961 20.4809C50.7961 20.4809 50.7961 20.4809 50.7961 20.4809C50.796 20.4809 50.796 20.4809 50.796 20.4809C50.796 20.4809 50.796 20.4809 50.796 20.4809C50.7959 20.4809 50.7959 20.4809 50.7959 20.4809C50.7959 20.4809 50.7959 20.4809 50.7958 20.4809C50.7958 20.4809 50.7958 20.4809 50.7958 20.4809C50.7958 20.4809 50.7958 20.4809 50.7957 20.4809C50.7957 20.4809 50.7957 20.4809 50.7957 20.4809C50.7957 20.4809 50.7957 20.4809 50.7956 20.4809C50.7956 20.4809 50.7956 20.4809 50.7956 20.4809C50.7956 20.4809 50.7956 20.4809 50.7955 20.4809C50.7955 20.4809 50.7955 20.4809 50.7955 20.4809C50.7955 20.4809 50.7955 20.4809 50.7954 20.4809C50.7954 20.4809 50.7954 20.4809 50.7954 20.4809C50.7954 20.4809 50.7954 20.4809 50.7953 20.4809C50.7953 20.4809 50.7953 20.4809 50.7953 20.4809C50.7953 20.4809 50.7953 20.4809 50.7953 20.4809C50.7952 20.4809 50.7952 20.4809 50.7952 20.4809C50.7952 20.4809 50.7952 20.4809 50.7952 20.4809C50.7951 20.4809 50.7951 20.4809 50.7951 20.4809C50.7951 20.4809 50.7951 20.4809 50.7951 20.4809C50.795 20.4809 50.795 20.4809 50.795 20.4809C50.795 20.4809 50.795 20.4809 50.795 20.4809C50.795 20.4809 50.7949 20.4809 50.7949 20.4809C50.7949 20.4809 50.7949 20.4809 50.7949 20.4809C50.7949 20.4809 50.7949 20.4809 50.7948 20.4809C50.7948 20.4809 50.7948 20.4809 50.7948 20.4809C50.7948 20.4809 50.7948 20.4809 50.7948 20.4809C50.7947 20.4809 50.7947 20.4809 50.7947 20.4809C50.7947 20.4809 50.7947 20.4809 50.7947 20.4809C50.7946 20.4809 50.7946 20.4809 50.7946 20.4809C50.7946 20.4809 50.7946 20.4809 50.7946 20.4809C50.7946 20.4809 50.7945 20.4809 50.7945 20.4809C50.7945 20.4809 50.7945 20.4809 50.7945 20.4809C50.7945 20.4809 50.7945 20.4809 50.7945 20.4809C50.7944 20.4809 50.7944 20.4809 50.7944 20.4809C50.7944 20.4809 50.7944 20.4809 50.7944 20.4809C50.7944 20.4809 50.7943 20.4809 50.7943 20.4809C50.7943 20.4809 50.7943 20.4809 50.7943 20.4809C50.7943 20.4809 50.7943 20.4809 50.7942 20.4809C50.7942 20.4809 50.7942 20.4809 50.7942 20.4809C50.7942 20.4809 50.7942 20.4809 50.7942 20.4809C50.7942 20.4809 50.7941 20.4809 50.7941 20.4809C50.7941 20.4809 50.7941 20.4809 50.7941 20.4809C50.7941 20.4809 50.7941 20.4809 50.7941 20.4809C50.794 20.4809 50.794 20.4809 50.794 20.4809C50.794 20.4809 50.794 20.4809 50.794 20.4809C50.794 20.4809 50.7939 20.4809 50.7939 20.4809C50.7939 20.4809 50.7939 20.4809 50.7939 20.4809C50.7939 20.4809 50.7939 20.4809 50.7939 20.4809C50.7939 20.4809 50.7938 20.4809 50.7938 20.4809C50.7938 20.4809 50.7938 20.4809 50.7938 20.4809C50.7938 20.4809 50.7938 20.4809 50.7938 20.4809C50.7937 20.4809 50.7937 20.4809 50.7937 20.4809C50.7937 20.4809 50.7937 20.4809 50.7937 20.4809C50.7937 20.4809 50.7937 20.4809 50.7936 20.4809C50.7936 20.4809 50.7936 20.4809 50.7936 20.4809C50.7936 20.4809 50.7936 20.4809 50.7936 20.4809C50.7936 20.4809 50.7936 20.4809 50.7935 20.4809C50.7935 20.4809 50.7935 20.4809 50.7935 20.4809C50.7935 20.4809 50.7935 20.4809 50.7935 20.4809C50.7935 20.4809 50.7935 20.4809 50.7934 20.4809C50.7934 20.4809 50.7934 20.4809 50.7934 20.4809C50.7934 20.4809 50.7934 20.4809 50.7934 20.4809C50.7934 20.4809 50.7934 20.4809 50.7933 20.4809C50.7933 20.4809 50.7933 20.4809 50.7933 20.4809C50.7933 20.4809 50.7933 20.4809 50.7933 20.4809C50.7933 20.4809 50.7933 20.4809 50.7932 20.4809C50.7932 20.4809 50.7932 20.4809 50.7932 20.4809C50.7932 20.4809 50.7932 20.4809 50.7932 20.4809C50.7932 20.4809 50.7932 20.4809 50.7932 20.4809C50.7931 20.4809 50.7931 20.4809 50.7931 20.4809C50.7931 20.4809 50.7931 20.4809 50.7931 20.4809C50.7931 20.4809 50.7931 20.4809 50.7931 20.4809C50.7931 20.4809 50.793 20.4809 50.793 20.4809C50.793 20.4809 50.793 20.4809 50.793 20.4809C50.793 20.4809 50.793 20.4809 50.793 20.4809C50.793 20.4809 50.793 20.4809 50.7929 20.4809C50.7929 20.4809 50.7929 20.4809 50.7929 20.4809C50.7929 20.4809 50.7929 20.4809 50.7929 20.4809C50.7929 20.4809 50.7929 20.4809 50.7929 20.4809C50.7929 20.4809 50.7928 20.4809 50.7928 20.4809C50.7928 20.4809 50.7928 20.4809 50.7928 20.4809C50.7928 20.4809 50.7928 20.4809 50.7928 20.4809C50.7928 20.4809 50.7928 20.4809 50.7928 20.4809C50.7927 20.4809 50.7927 20.4809 50.7927 20.4809C50.7927 20.4809 50.7927 20.4809 50.7927 20.4809C50.7927 20.4809 50.7927 20.4809 50.7927 20.4809C50.7927 20.4809 50.7927 20.4809 50.7926 20.4809C50.7926 20.4809 50.7926 20.4809 50.7926 20.4809C50.7926 20.4809 50.7926 20.4809 50.7926 20.4809C50.7926 20.4809 50.7926 20.4809 50.7926 20.4809C50.7926 20.4809 50.7925 20.4809 50.7925 20.4809C50.7925 20.4809 50.7925 20.4809 50.7925 20.4809C50.7925 20.4809 50.7925 20.4809 50.7925 20.4809C50.7925 20.4809 50.7925 20.4809 50.7925 20.4809C50.7925 20.4809 50.7925 20.4809 50.7924 20.4809C50.7924 20.4809 50.7924 20.4809 50.7924 20.4809C50.7924 20.4809 50.7924 20.4809 50.7924 20.4809C50.7924 20.4809 50.7924 20.4809 50.7924 20.4809C50.7924 20.4809 50.7924 20.4809 50.7924 20.4809C50.7923 20.4809 50.7923 20.4809 50.7923 20.4809C50.7923 20.4809 50.7923 20.4809 50.7923 20.4809C50.7923 20.4809 50.7923 20.4809 50.7923 20.4809C50.7923 20.4809 50.7923 20.4809 50.7923 20.4809C50.7923 20.4809 50.7922 20.4809 50.7922 20.4809C50.7922 20.4809 50.7922 20.4809 50.7922 20.4809C50.7922 20.4809 50.7922 20.4809 50.7922 20.4809C50.7922 20.4809 50.7922 20.4809 50.7922 20.4809C50.7922 20.4809 50.7922 20.4809 50.7922 20.4809C50.7921 20.4809 50.7921 20.4809 50.7921 20.4809C50.7921 20.4809 50.7921 20.4809 50.7921 20.4809C50.7921 20.4809 50.7921 20.4809 50.7921 20.4809C50.7921 20.4809 50.7921 20.4809 50.7921 20.4809C50.7921 20.4809 50.7921 20.4809 50.792 20.4809C50.792 20.4809 50.792 20.4809 50.792 20.4809C50.792 20.4809 50.792 20.4809 50.792 20.4809C50.792 20.4809 50.792 20.4809 50.792 20.4809C50.792 20.4809 50.792 20.4809 50.792 20.4809C50.792 20.4809 50.792 20.4809 50.792 20.4809C50.7919 20.4809 50.7919 20.4809 50.7919 20.4809C50.7919 20.4809 50.7919 20.4809 50.7919 20.4809C50.7919 20.4809 50.7919 20.4809 50.7919 20.4809C50.7919 20.4809 50.7919 20.4809 50.7919 20.4809C50.7919 20.4809 50.7919 20.4809 50.7919 20.4809C50.7919 20.4809 50.7919 20.4809 50.7918 20.4809C50.7918 20.4809 50.7918 20.4809 50.7918 20.4809C50.7918 20.4809 50.7918 20.4809 50.7918 20.4809C50.7918 20.4809 50.7918 20.4809 50.7918 20.4809C50.7918 20.4809 50.7918 20.4809 50.7918 20.4809C50.7918 20.4809 50.7918 20.4809 50.7918 20.4809C50.7918 20.4809 50.7917 20.4809 50.7917 20.4809C50.7917 20.4809 50.7917 20.4809 50.7917 20.4809C50.7917 20.4809 50.7917 20.4809 50.7917 20.4809C50.7917 20.4809 50.7917 20.4809 50.7917 20.4809C50.7917 20.4809 50.7917 20.4809 50.7917 20.4809C50.7917 20.4809 50.7917 20.4809 50.7917 20.4809C50.7917 20.4809 50.7917 20.4809 50.7916 20.4809C50.7916 20.4809 50.7916 20.4809 50.7916 20.4809C50.7916 20.4809 50.7916 20.4809 50.7916 20.4809C50.7916 20.4809 50.7916 20.4809 50.7916 20.4809C50.7916 20.4809 50.7916 20.4809 50.7916 20.4809C50.7916 20.4809 50.7916 20.4809 50.7916 20.4809C50.7916 20.4809 50.7916 20.4809 50.7916 20.4809C50.7916 20.4809 50.7916 20.4809 50.7915 20.4809C50.7915 20.4809 50.7915 20.4809 50.7915 20.4809C50.7915 20.4809 50.7915 20.4809 50.7915 20.4809C50.7915 20.4809 50.7915 20.4809 50.7915 20.4809C50.7915 20.4809 50.7915 20.4809 50.7915 20.4809C50.7915 20.4809 50.7915 20.4809 50.7915 20.4809C50.7915 20.4809 50.7915 20.4809 50.7915 20.4809C50.7915 20.4809 50.7915 20.4809 50.7915 20.4809C50.7915 20.4809 50.7915 20.4809 50.7914 20.4809C50.7914 20.4809 50.7914 20.4809 50.7914 20.4809C50.7914 20.4809 50.7914 20.4809 50.7914 20.4809C50.7914 20.4809 50.7914 20.4809 50.7914 20.4809C50.7914 20.4809 50.7914 20.4809 50.7914 20.4809C50.7914 20.4809 50.7914 20.4809 50.7914 20.4809C50.7914 20.4809 50.7914 20.4809 50.7914 20.4809C50.7914 20.4809 50.7914 20.4809 50.7914 20.4809C50.7914 20.4809 50.7914 20.4809 50.7914 20.4809C50.7913 20.4809 50.7913 20.4809 50.7913 20.4809C50.7913 20.4809 50.7913 20.4809 50.7913 20.4809C50.7913 20.4809 50.7913 20.4809 50.7913 20.4809C50.7913 20.4809 50.7913 20.4809 50.7913 20.4809C50.7913 20.4809 50.7913 20.4809 50.7913 20.4809C50.7913 20.4809 50.7913 20.4809 50.7913 20.4809C50.7913 20.4809 50.7913 20.4809 50.7913 20.4809C50.7913 20.4809 50.7913 20.4809 50.7913 20.4809C50.7913 20.4809 50.7913 20.4809 50.7913 20.4809C50.7913 20.4809 50.7913 20.4809 50.7913 20.4809C50.7912 20.4809 50.7912 20.4809 50.7912 20.4809C50.7912 20.4809 50.7912 20.4809 50.7912 20.4809C50.7912 20.4809 50.7912 20.4809 50.7912 20.4809C50.7912 20.4809 50.7912 20.4809 50.7912 20.4809C50.7912 20.4809 50.7912 20.4809 50.7912 20.4809C50.7912 20.4809 50.7912 20.4809 50.7912 20.4809C50.7912 20.4809 50.7912 20.4809 50.7912 20.4809C50.7912 20.4809 50.7912 20.4809 50.7912 20.4809C50.7912 20.4809 50.7912 20.4809 50.7912 20.4809C50.7912 20.4809 50.7912 20.4809 50.7912 20.4809C50.7912 20.4809 50.7912 20.4809 50.7912 20.4809C50.7912 20.4809 50.7912 20.4809 50.7911 20.4809C50.7911 20.4809 50.7911 20.4809 50.7911 20.4809C50.7911 20.4809 50.7911 20.4809 50.7911 20.4809C50.7911 20.4809 50.7911 20.4809 50.7911 20.4809C50.7911 20.4809 50.7911 20.4809 50.7911 20.4809C50.7911 20.4809 50.7911 20.4809 50.7911 20.4809H50.7911C50.7911 20.4809 50.7911 20.4809 50.7911 20.4809C50.7911 20.4809 50.7911 20.4809 50.7911 20.4809C50.7911 20.4809 50.7911 20.4809 50.7911 20.4809H50.7911C50.7911 20.4809 50.7911 20.4809 50.7911 20.4809H50.7911C50.7911 20.4809 50.7911 20.4809 50.7911 20.4809C50.7911 20.4809 50.7911 20.4809 50.7911 20.4809H50.791C50.791 20.4809 50.791 20.4809 50.791 20.4809H50.791H50.791C50.791 20.4809 50.791 20.4809 50.791 20.4809H50.791C50.791 20.4809 50.791 20.4809 50.791 20.4809C50.791 20.4809 50.791 20.4809 50.791 20.4809H50.791C50.791 20.4809 50.791 20.4809 50.791 20.4809C50.791 20.4809 50.791 20.4809 50.791 20.4809C50.791 20.4809 50.791 20.4809 50.791 20.4809H50.791H50.791H50.791H50.791C50.791 20.4809 50.791 20.4809 50.791 20.4809C50.791 20.4809 50.791 20.4809 50.791 20.4809C50.791 20.4809 50.791 20.4809 50.791 20.4809C50.791 20.4809 50.791 20.4809 50.791 20.4809C50.791 20.4809 50.791 20.4809 50.791 20.4809C50.791 20.4809 50.791 20.4809 50.791 20.4809H50.791H50.7909C50.7909 20.4809 50.7909 20.4809 50.7909 20.4809C50.7909 20.4809 50.7909 20.4809 50.7909 20.4809C50.7909 20.4809 50.7909 20.4809 50.7909 20.4809H50.7909C50.7909 20.4809 50.7909 20.4809 50.7909 20.4809C50.7909 20.4809 50.7909 20.4809 50.7909 20.4809H50.7909C50.7909 20.4809 50.7909 20.4809 50.7909 20.4809C50.7909 20.4809 50.7909 20.4809 50.7909 20.4809H50.7909C50.7909 20.4809 50.7909 20.4809 50.7909 20.4809C50.7909 20.4809 50.7909 20.4809 50.7909 20.4809C50.7909 20.4809 50.7909 20.4809 50.7909 20.4809H50.7909C50.7909 20.4809 50.7909 20.4809 50.7909 20.4809H50.7909H50.7909C50.7909 20.4809 50.7909 20.4809 50.7909 20.4809H50.7909C50.7909 20.4809 50.7909 20.4809 50.7909 20.4809C50.7909 20.4809 50.7909 20.4809 50.7909 20.4809V21.1562V21.8316C50.7909 21.8316 50.7909 21.8316 50.7909 21.8316C50.7909 21.8316 50.7909 21.8316 50.7909 21.8316H50.7909C50.7909 21.8316 50.7909 21.8316 50.7909 21.8316H50.7909H50.7909C50.7909 21.8316 50.7909 21.8316 50.7909 21.8316H50.7909C50.7909 21.8316 50.7909 21.8316 50.7909 21.8316C50.7909 21.8316 50.7909 21.8316 50.7909 21.8316C50.7909 21.8316 50.7909 21.8316 50.7909 21.8316H50.7909C50.7909 21.8316 50.7909 21.8316 50.7909 21.8316C50.7909 21.8316 50.7909 21.8316 50.7909 21.8316H50.7909C50.7909 21.8316 50.7909 21.8316 50.7909 21.8316C50.7909 21.8316 50.7909 21.8316 50.7909 21.8316H50.7909C50.7909 21.8316 50.7909 21.8316 50.7909 21.8316C50.7909 21.8316 50.7909 21.8316 50.7909 21.8316C50.7909 21.8316 50.7909 21.8316 50.7909 21.8316H50.791H50.791C50.791 21.8316 50.791 21.8316 50.791 21.8316C50.791 21.8316 50.791 21.8316 50.791 21.8316C50.791 21.8316 50.791 21.8316 50.791 21.8316C50.791 21.8316 50.791 21.8316 50.791 21.8316C50.791 21.8316 50.791 21.8316 50.791 21.8316C50.791 21.8316 50.791 21.8316 50.791 21.8316H50.791H50.791H50.791H50.791C50.791 21.8316 50.791 21.8316 50.791 21.8316C50.791 21.8316 50.791 21.8316 50.791 21.8316C50.791 21.8316 50.791 21.8316 50.791 21.8316H50.791C50.791 21.8316 50.791 21.8316 50.791 21.8316C50.791 21.8316 50.791 21.8316 50.791 21.8316H50.791C50.791 21.8316 50.791 21.8316 50.791 21.8316H50.791H50.791C50.791 21.8316 50.791 21.8316 50.791 21.8316H50.7911C50.7911 21.8316 50.7911 21.8316 50.7911 21.8316C50.7911 21.8316 50.7911 21.8316 50.7911 21.8316H50.7911C50.7911 21.8316 50.7911 21.8316 50.7911 21.8316H50.7911C50.7911 21.8316 50.7911 21.8316 50.7911 21.8316C50.7911 21.8316 50.7911 21.8316 50.7911 21.8316C50.7911 21.8316 50.7911 21.8316 50.7911 21.8316H50.7911C50.7911 21.8316 50.7911 21.8316 50.7911 21.8316C50.7911 21.8316 50.7911 21.8316 50.7911 21.8316C50.7911 21.8316 50.7911 21.8316 50.7911 21.8316C50.7911 21.8316 50.7911 21.8316 50.7911 21.8316C50.7911 21.8316 50.7911 21.8316 50.7911 21.8316C50.7912 21.8316 50.7912 21.8316 50.7912 21.8316C50.7912 21.8316 50.7912 21.8316 50.7912 21.8316C50.7912 21.8316 50.7912 21.8316 50.7912 21.8316C50.7912 21.8316 50.7912 21.8316 50.7912 21.8316C50.7912 21.8316 50.7912 21.8316 50.7912 21.8316C50.7912 21.8316 50.7912 21.8316 50.7912 21.8316C50.7912 21.8316 50.7912 21.8316 50.7912 21.8316C50.7912 21.8316 50.7912 21.8316 50.7912 21.8316C50.7912 21.8316 50.7912 21.8316 50.7912 21.8316C50.7912 21.8316 50.7912 21.8316 50.7912 21.8316C50.7912 21.8316 50.7912 21.8316 50.7912 21.8316C50.7912 21.8316 50.7912 21.8316 50.7913 21.8316C50.7913 21.8316 50.7913 21.8316 50.7913 21.8316C50.7913 21.8316 50.7913 21.8316 50.7913 21.8316C50.7913 21.8316 50.7913 21.8316 50.7913 21.8316C50.7913 21.8316 50.7913 21.8316 50.7913 21.8316C50.7913 21.8316 50.7913 21.8316 50.7913 21.8316C50.7913 21.8316 50.7913 21.8316 50.7913 21.8316C50.7913 21.8316 50.7913 21.8316 50.7913 21.8316C50.7913 21.8316 50.7913 21.8316 50.7913 21.8316C50.7913 21.8316 50.7913 21.8316 50.7913 21.8316C50.7913 21.8316 50.7913 21.8316 50.7914 21.8316C50.7914 21.8316 50.7914 21.8316 50.7914 21.8316C50.7914 21.8316 50.7914 21.8316 50.7914 21.8316C50.7914 21.8316 50.7914 21.8316 50.7914 21.8316C50.7914 21.8316 50.7914 21.8316 50.7914 21.8316C50.7914 21.8316 50.7914 21.8316 50.7914 21.8316C50.7914 21.8316 50.7914 21.8316 50.7914 21.8316C50.7914 21.8316 50.7914 21.8316 50.7914 21.8316C50.7914 21.8316 50.7914 21.8316 50.7914 21.8316C50.7915 21.8316 50.7915 21.8316 50.7915 21.8316C50.7915 21.8316 50.7915 21.8316 50.7915 21.8316C50.7915 21.8316 50.7915 21.8316 50.7915 21.8316C50.7915 21.8316 50.7915 21.8316 50.7915 21.8316C50.7915 21.8316 50.7915 21.8316 50.7915 21.8316C50.7915 21.8316 50.7915 21.8316 50.7915 21.8316C50.7915 21.8316 50.7915 21.8316 50.7915 21.8316C50.7915 21.8316 50.7915 21.8316 50.7915 21.8316C50.7916 21.8316 50.7916 21.8316 50.7916 21.8316C50.7916 21.8316 50.7916 21.8316 50.7916 21.8316C50.7916 21.8316 50.7916 21.8316 50.7916 21.8316C50.7916 21.8316 50.7916 21.8316 50.7916 21.8316C50.7916 21.8316 50.7916 21.8316 50.7916 21.8316C50.7916 21.8316 50.7916 21.8316 50.7916 21.8316C50.7916 21.8316 50.7916 21.8316 50.7916 21.8316C50.7917 21.8316 50.7917 21.8316 50.7917 21.8316C50.7917 21.8316 50.7917 21.8316 50.7917 21.8316C50.7917 21.8316 50.7917 21.8316 50.7917 21.8316C50.7917 21.8316 50.7917 21.8316 50.7917 21.8316C50.7917 21.8316 50.7917 21.8316 50.7917 21.8316C50.7917 21.8316 50.7917 21.8316 50.7917 21.8316C50.7917 21.8316 50.7918 21.8316 50.7918 21.8316C50.7918 21.8316 50.7918 21.8316 50.7918 21.8316C50.7918 21.8316 50.7918 21.8316 50.7918 21.8316C50.7918 21.8316 50.7918 21.8316 50.7918 21.8316C50.7918 21.8316 50.7918 21.8316 50.7918 21.8316C50.7918 21.8316 50.7918 21.8316 50.7918 21.8316C50.7919 21.8316 50.7919 21.8316 50.7919 21.8316C50.7919 21.8316 50.7919 21.8316 50.7919 21.8316C50.7919 21.8316 50.7919 21.8316 50.7919 21.8316C50.7919 21.8316 50.7919 21.8316 50.7919 21.8316C50.7919 21.8316 50.7919 21.8316 50.7919 21.8316C50.7919 21.8316 50.7919 21.8316 50.792 21.8316C50.792 21.8316 50.792 21.8316 50.792 21.8316C50.792 21.8316 50.792 21.8316 50.792 21.8316C50.792 21.8316 50.792 21.8316 50.792 21.8316C50.792 21.8316 50.792 21.8316 50.792 21.8316C50.792 21.8316 50.792 21.8316 50.792 21.8316C50.7921 21.8316 50.7921 21.8316 50.7921 21.8316C50.7921 21.8316 50.7921 21.8316 50.7921 21.8316C50.7921 21.8316 50.7921 21.8316 50.7921 21.8316C50.7921 21.8316 50.7921 21.8316 50.7921 21.8316C50.7921 21.8316 50.7921 21.8316 50.7922 21.8316C50.7922 21.8316 50.7922 21.8316 50.7922 21.8316C50.7922 21.8316 50.7922 21.8316 50.7922 21.8316C50.7922 21.8316 50.7922 21.8316 50.7922 21.8316C50.7922 21.8316 50.7922 21.8316 50.7922 21.8316C50.7922 21.8316 50.7923 21.8316 50.7923 21.8316C50.7923 21.8316 50.7923 21.8316 50.7923 21.8316C50.7923 21.8316 50.7923 21.8316 50.7923 21.8316C50.7923 21.8316 50.7923 21.8316 50.7923 21.8316C50.7923 21.8316 50.7923 21.8316 50.7924 21.8316C50.7924 21.8316 50.7924 21.8316 50.7924 21.8316C50.7924 21.8316 50.7924 21.8316 50.7924 21.8316C50.7924 21.8316 50.7924 21.8316 50.7924 21.8316C50.7924 21.8316 50.7924 21.8316 50.7924 21.8316C50.7925 21.8316 50.7925 21.8316 50.7925 21.8316C50.7925 21.8316 50.7925 21.8316 50.7925 21.8316C50.7925 21.8316 50.7925 21.8316 50.7925 21.8316C50.7925 21.8316 50.7925 21.8316 50.7925 21.8316C50.7925 21.8316 50.7926 21.8316 50.7926 21.8316C50.7926 21.8316 50.7926 21.8316 50.7926 21.8316C50.7926 21.8316 50.7926 21.8316 50.7926 21.8316C50.7926 21.8316 50.7926 21.8316 50.7926 21.8316C50.7927 21.8316 50.7927 21.8316 50.7927 21.8316C50.7927 21.8316 50.7927 21.8316 50.7927 21.8316C50.7927 21.8316 50.7927 21.8316 50.7927 21.8316C50.7927 21.8316 50.7927 21.8316 50.7928 21.8316C50.7928 21.8316 50.7928 21.8316 50.7928 21.8316C50.7928 21.8316 50.7928 21.8316 50.7928 21.8316C50.7928 21.8316 50.7928 21.8316 50.7928 21.8316C50.7928 21.8316 50.7929 21.8316 50.7929 21.8316C50.7929 21.8316 50.7929 21.8316 50.7929 21.8316C50.7929 21.8316 50.7929 21.8316 50.7929 21.8316C50.7929 21.8316 50.7929 21.8316 50.7929 21.8316C50.793 21.8316 50.793 21.8316 50.793 21.8316C50.793 21.8316 50.793 21.8316 50.793 21.8316C50.793 21.8316 50.793 21.8316 50.793 21.8316C50.793 21.8316 50.7931 21.8316 50.7931 21.8316C50.7931 21.8316 50.7931 21.8316 50.7931 21.8316C50.7931 21.8316 50.7931 21.8316 50.7931 21.8316C50.7931 21.8316 50.7931 21.8316 50.7932 21.8316C50.7932 21.8316 50.7932 21.8316 50.7932 21.8316C50.7932 21.8316 50.7932 21.8316 50.7932 21.8316C50.7932 21.8316 50.7932 21.8316 50.7932 21.8316C50.7933 21.8316 50.7933 21.8316 50.7933 21.8316C50.7933 21.8316 50.7933 21.8316 50.7933 21.8316C50.7933 21.8316 50.7933 21.8316 50.7933 21.8316C50.7934 21.8316 50.7934 21.8316 50.7934 21.8316C50.7934 21.8316 50.7934 21.8316 50.7934 21.8316C50.7934 21.8316 50.7934 21.8316 50.7934 21.8316C50.7935 21.8316 50.7935 21.8316 50.7935 21.8316C50.7935 21.8316 50.7935 21.8316 50.7935 21.8316C50.7935 21.8316 50.7935 21.8316 50.7935 21.8316C50.7936 21.8316 50.7936 21.8316 50.7936 21.8316C50.7936 21.8316 50.7936 21.8316 50.7936 21.8316C50.7936 21.8316 50.7936 21.8316 50.7936 21.8316C50.7937 21.8316 50.7937 21.8316 50.7937 21.8316C50.7937 21.8316 50.7937 21.8316 50.7937 21.8316C50.7937 21.8316 50.7937 21.8316 50.7938 21.8316C50.7938 21.8316 50.7938 21.8316 50.7938 21.8316C50.7938 21.8316 50.7938 21.8316 50.7938 21.8316C50.7938 21.8316 50.7939 21.8316 50.7939 21.8316C50.7939 21.8316 50.7939 21.8316 50.7939 21.8316C50.7939 21.8316 50.7939 21.8316 50.7939 21.8316C50.7939 21.8316 50.794 21.8316 50.794 21.8316C50.794 21.8316 50.794 21.8316 50.794 21.8316C50.794 21.8316 50.794 21.8316 50.7941 21.8316C50.7941 21.8316 50.7941 21.8316 50.7941 21.8316C50.7941 21.8316 50.7941 21.8316 50.7941 21.8316C50.7941 21.8316 50.7942 21.8316 50.7942 21.8316C50.7942 21.8316 50.7942 21.8316 50.7942 21.8316C50.7942 21.8316 50.7942 21.8316 50.7942 21.8316C50.7943 21.8316 50.7943 21.8316 50.7943 21.8316C50.7943 21.8316 50.7943 21.8316 50.7943 21.8316C50.7943 21.8316 50.7944 21.8316 50.7944 21.8316C50.7944 21.8316 50.7944 21.8316 50.7944 21.8316C50.7944 21.8316 50.7944 21.8316 50.7945 21.8316C50.7945 21.8316 50.7945 21.8316 50.7945 21.8316C50.7945 21.8316 50.7945 21.8316 50.7945 21.8316C50.7945 21.8316 50.7946 21.8316 50.7946 21.8316C50.7946 21.8316 50.7946 21.8316 50.7946 21.8316C50.7946 21.8316 50.7946 21.8316 50.7947 21.8316C50.7947 21.8316 50.7947 21.8316 50.7947 21.8316C50.7947 21.8316 50.7947 21.8316 50.7948 21.8316C50.7948 21.8316 50.7948 21.8316 50.7948 21.8316C50.7948 21.8316 50.7948 21.8316 50.7948 21.8316C50.7949 21.8316 50.7949 21.8316 50.7949 21.8316C50.7949 21.8316 50.7949 21.8316 50.7949 21.8316C50.7949 21.8316 50.795 21.8316 50.795 21.8316C50.795 21.8316 50.795 21.8316 50.795 21.8316C50.795 21.8316 50.795 21.8316 50.7951 21.8316C50.7951 21.8316 50.7951 21.8316 50.7951 21.8316C50.7951 21.8316 50.7951 21.8316 50.7952 21.8316C50.7952 21.8316 50.7952 21.8316 50.7952 21.8316C50.7952 21.8316 50.7952 21.8316 50.7953 21.8316C50.7953 21.8316 50.7953 21.8316 50.7953 21.8316C50.7953 21.8316 50.7953 21.8316 50.7953 21.8316C50.7954 21.8316 50.7954 21.8316 50.7954 21.8316C50.7954 21.8316 50.7954 21.8316 50.7954 21.8316C50.7955 21.8316 50.7955 21.8316 50.7955 21.8316C50.7955 21.8316 50.7955 21.8316 50.7955 21.8316C50.7956 21.8316 50.7956 21.8316 50.7956 21.8316C50.7956 21.8316 50.7956 21.8316 50.7956 21.8316C50.7957 21.8316 50.7957 21.8316 50.7957 21.8316C50.7957 21.8316 50.7957 21.8316 50.7957 21.8316C50.7958 21.8316 50.7958 21.8316 50.7958 21.8316C50.7958 21.8316 50.7958 21.8316 50.7958 21.8316C50.7959 21.8316 50.7959 21.8316 50.7959 21.8316C50.7959 21.8316 50.7959 21.8316 50.796 21.8316C50.796 21.8316 50.796 21.8316 50.796 21.8316C50.796 21.8316 50.796 21.8316 50.7961 21.8316C50.7961 21.8316 50.7961 21.8316 50.7961 21.8316C50.7961 21.8316 50.7961 21.8316 50.7962 21.8316C50.7962 21.8316 50.7962 21.8316 50.7962 21.8316C50.7962 21.8316 50.7963 21.8316 50.7963 21.8316C50.7963 21.8316 50.7963 21.8316 50.7963 21.8316C50.7963 21.8316 50.7964 21.8316 50.7964 21.8316C50.7964 21.8316 50.7964 21.8316 50.7964 21.8316C50.7965 21.8316 50.7965 21.8316 50.7965 21.8316C50.7965 21.8316 50.7965 21.8316 50.7966 21.8316C50.7966 21.8316 50.7966 21.8316 50.7966 21.8316C50.7966 21.8316 50.7966 21.8316 50.7967 21.8316C50.7967 21.8316 50.7967 21.8316 50.7967 21.8316C50.7967 21.8316 50.7968 21.8316 50.7968 21.8316C50.7968 21.8316 50.7968 21.8316 50.7968 21.8316C50.7969 21.8316 50.7969 21.8316 50.7969 21.8316C50.7969 21.8316 50.7969 21.8316 50.797 21.8316C50.797 21.8316 50.797 21.8316 50.797 21.8316C50.797 21.8316 50.7971 21.8316 50.7971 21.8316C50.7971 21.8316 50.7971 21.8316 50.7971 21.8316C50.7972 21.8316 50.7972 21.8316 50.7972 21.8316C50.7972 21.8316 50.7972 21.8316 50.7973 21.8316C50.7973 21.8316 50.7973 21.8316 50.7973 21.8316C50.7973 21.8316 50.7974 21.8316 50.7974 21.8316C50.7974 21.8316 50.7974 21.8316 50.7974 21.8316C50.7975 21.8316 50.7975 21.8316 50.7975 21.8316C50.7975 21.8316 50.7975 21.8316 50.7976 21.8316C50.7976 21.8316 50.7976 21.8316 50.7976 21.8316C50.7976 21.8316 50.7977 21.8316 50.7977 21.8316C50.7977 21.8316 50.7977 21.8316 50.7978 21.8316C50.7978 21.8316 50.7978 21.8316 50.7978 21.8316C50.7978 21.8316 50.7979 21.8316 50.7979 21.8316C50.7979 21.8316 50.7979 21.8316 50.798 21.8316C50.798 21.8316 50.798 21.8316 50.798 21.8316C50.798 21.8316 50.7981 21.8316 50.7981 21.8316C50.7981 21.8316 50.7981 21.8316 50.7981 21.8316C50.7982 21.8316 50.7982 21.8316 50.7982 21.8316C50.7982 21.8316 50.7983 21.8316 50.7983 21.8316C50.7983 21.8316 50.7983 21.8316 50.7983 21.8316C50.7984 21.8316 50.7984 21.8316 50.7984 21.8316C50.7984 21.8316 50.7985 21.8316 50.7985 21.8316C50.7985 21.8316 50.7985 21.8316 50.7986 21.8316C50.7986 21.8316 50.7986 21.8316 50.7986 21.8316C50.7986 21.8316 50.7987 21.8316 50.7987 21.8316C50.7987 21.8316 50.7987 21.8316 50.7988 21.8316C50.7988 21.8316 50.7988 21.8316 50.7988 21.8316C50.7989 21.8316 50.7989 21.8316 50.7989 21.8316C50.7989 21.8316 50.799 21.8316 50.799 21.8316C50.799 21.8316 50.799 21.8316 50.799 21.8316C50.7991 21.8316 50.7991 21.8316 50.7991 21.8316C50.7991 21.8316 50.7992 21.8316 50.7992 21.8316C50.7992 21.8316 50.7992 21.8316 50.7993 21.8316C50.7993 21.8316 50.7993 21.8316 50.7993 21.8316C50.7994 21.8316 50.7994 21.8316 50.7994 21.8316C50.7994 21.8316 50.7995 21.8316 50.7995 21.8316C50.7995 21.8316 50.7995 21.8316 50.7996 21.8316C50.7996 21.8316 50.7996 21.8316 50.7996 21.8316C50.7997 21.8316 50.7997 21.8316 50.7997 21.8316C50.7997 21.8316 50.7998 21.8316 50.7998 21.8316C50.7998 21.8316 50.7998 21.8316 50.7999 21.8316C50.7999 21.8316 50.7999 21.8316 50.7999 21.8316C50.8 21.8316 50.8 21.8316 50.8 21.8316C50.8 21.8316 50.8001 21.8316 50.8001 21.8316C50.8001 21.8316 50.8001 21.8316 50.8002 21.8316C50.8002 21.8316 50.8002 21.8316 50.8003 21.8316C50.8003 21.8316 50.8003 21.8316 50.8003 21.8316C50.8004 21.8316 50.8004 21.8316 50.8004 21.8316C50.8004 21.8316 50.8005 21.8316 50.8005 21.8316C50.8005 21.8316 50.8005 21.8316 50.8006 21.8316C50.8006 21.8316 50.8006 21.8316 50.8007 21.8316C50.8007 21.8316 50.8007 21.8316 50.8007 21.8316C50.8008 21.8316 50.8008 21.8316 50.8008 21.8316C50.8008 21.8316 50.8009 21.8316 50.8009 21.8316C50.8009 21.8316 50.801 21.8316 50.801 21.8316C50.801 21.8316 50.801 21.8316 50.8011 21.8316C50.8011 21.8316 50.8011 21.8316 50.8011 21.8316C50.8012 21.8316 50.8012 21.8316 50.8012 21.8316C50.8013 21.8316 50.8013 21.8316 50.8013 21.8316C50.8013 21.8316 50.8014 21.8316 50.8014 21.8316C50.8014 21.8316 50.8015 21.8316 50.8015 21.8316C50.8015 21.8316 50.8015 21.8316 50.8016 21.8316C50.8016 21.8316 50.8016 21.8316 50.8017 21.8316C50.8017 21.8316 50.8017 21.8316 50.8017 21.8316C50.8018 21.8316 50.8018 21.8316 50.8018 21.8316C50.8019 21.8316 50.8019 21.8316 50.8019 21.8316C50.802 21.8316 50.802 21.8316 50.802 21.8316C50.802 21.8316 50.8021 21.8316 50.8021 21.8316C50.8021 21.8316 50.8022 21.8316 50.8022 21.8316C50.8022 21.8316 50.8022 21.8316 50.8023 21.8316C50.8023 21.8316 50.8023 21.8316 50.8024 21.8316C50.8024 21.8316 50.8024 21.8316 50.8025 21.8316C50.8025 21.8316 50.8025 21.8316 50.8025 21.8316C50.8026 21.8316 50.8026 21.8316 50.8026 21.8316C50.8027 21.8316 50.8027 21.8316 50.8027 21.8316C50.8028 21.8316 50.8028 21.8316 50.8028 21.8316C50.8029 21.8316 50.8029 21.8316 50.8029 21.8316C50.8029 21.8316 50.803 21.8316 50.803 21.8316C50.803 21.8316 50.8031 21.8316 50.8031 21.8316C50.8031 21.8316 50.8032 21.8316 50.8032 21.8316C50.8032 21.8316 50.8033 21.8316 50.8033 21.8316C50.8033 21.8316 50.8034 21.8316 50.8034 21.8316C50.8034 21.8316 50.8035 21.8316 50.8035 21.8316C50.8035 21.8316 50.8036 21.8316 50.8036 21.8316C50.8036 21.8316 50.8036 21.8316 50.8037 21.8316C50.8037 21.8316 50.8037 21.8316 50.8038 21.8316C50.8038 21.8316 50.8038 21.8316 50.8039 21.8316C50.8039 21.8316 50.8039 21.8316 50.804 21.8316C50.804 21.8316 50.804 21.8316 50.8041 21.8316C50.8041 21.8316 50.8041 21.8316 50.8042 21.8316C50.8042 21.8316 50.8042 21.8316 50.8043 21.8316C50.8043 21.8316 50.8043 21.8316 50.8044 21.8316C50.8044 21.8316 50.8044 21.8316 50.8045 21.8316C50.8045 21.8316 50.8045 21.8316 50.8046 21.8316C50.8046 21.8316 50.8046 21.8316 50.8047 21.8316C50.8047 21.8316 50.8047 21.8316 50.8048 21.8316C50.8048 21.8316 50.8048 21.8316 50.8049 21.8316C50.8049 21.8316 50.8049 21.8316 50.805 21.8316C50.805 21.8316 50.8051 21.8316 50.8051 21.8316C50.8051 21.8316 50.8052 21.8316 50.8052 21.8316C50.8052 21.8316 50.8053 21.8316 50.8053 21.8316C50.8053 21.8316 50.8054 21.8316 50.8054 21.8316C50.8054 21.8316 50.8055 21.8316 50.8055 21.8316C50.8055 21.8316 50.8056 21.8316 50.8056 21.8316C50.8056 21.8316 50.8057 21.8316 50.8057 21.8316C50.8058 21.8316 50.8058 21.8316 50.8058 21.8316C50.8059 21.8316 50.8059 21.8316 50.8059 21.8316C50.806 21.8316 50.806 21.8316 50.806 21.8316C50.8061 21.8316 50.8061 21.8316 50.8062 21.8316C50.8062 21.8316 50.8062 21.8316 50.8063 21.8316C50.8063 21.8316 50.8063 21.8316 50.8064 21.8316C50.8064 21.8316 50.8064 21.8316 50.8065 21.8316C50.8065 21.8316 50.8066 21.8316 50.8066 21.8316C50.8066 21.8316 50.8067 21.8316 50.8067 21.8316C50.8067 21.8316 50.8068 21.8316 50.8068 21.8316C50.8069 21.8316 50.8069 21.8316 50.8069 21.8316C50.807 21.8316 50.807 21.8316 50.807 21.8316C50.8071 21.8316 50.8071 21.8316 50.8072 21.8316C50.8072 21.8316 50.8072 21.8316 50.8073 21.8316C50.8073 21.8316 50.8073 21.8316 50.8074 21.8316C50.8074 21.8316 50.8075 21.8316 50.8075 21.8316C50.8075 21.8316 50.8076 21.8316 50.8076 21.8316C50.8077 21.8316 50.8077 21.8316 50.8077 21.8316C50.8078 21.8316 50.8078 21.8316 50.8078 21.8316C50.8079 21.8316 50.8079 21.8316 50.808 21.8316C50.808 21.8316 50.808 21.8316 50.8081 21.8316C50.8081 21.8316 50.8082 21.8316 50.8082 21.8316C50.8082 21.8316 50.8083 21.8316 50.8083 21.8316C50.8084 21.8316 50.8084 21.8316 50.8084 21.8316C50.8085 21.8316 50.8085 21.8316 50.8086 21.8316C50.8086 21.8316 50.8086 21.8316 50.8087 21.8316C50.8087 21.8316 50.8088 21.8316 50.8088 21.8316C50.8088 21.8316 50.8089 21.8316 50.8089 21.8316C50.809 21.8316 50.809 21.8316 50.809 21.8316C50.8091 21.8316 50.8091 21.8316 50.8092 21.8316C50.8092 21.8316 50.8093 21.8316 50.8093 21.8316C50.8093 21.8316 50.8094 21.8316 50.8094 21.8316C50.8095 21.8316 50.8095 21.8316 50.8095 21.8316C50.8096 21.8316 50.8096 21.8316 50.8097 21.8316C50.8097 21.8316 50.8097 21.8316 50.8098 21.8316C50.8098 21.8316 50.8099 21.8316 50.8099 21.8316C50.81 21.8316 50.81 21.8316 50.81 21.8316C50.8101 21.8316 50.8101 21.8316 50.8102 21.8316C50.8102 21.8316 50.8103 21.8316 50.8103 21.8316C50.8103 21.8316 50.8104 21.8316 50.8104 21.8316C50.8105 21.8316 50.8105 21.8316 50.8106 21.8316C50.8106 21.8316 50.8106 21.8316 50.8107 21.8316C50.8107 21.8316 50.8108 21.8316 50.8108 21.8316C50.8109 21.8316 50.8109 21.8316 50.8109 21.8316C50.811 21.8316 50.811 21.8316 50.8111 21.8316C50.8111 21.8316 50.8112 21.8316 50.8112 21.8316C50.8113 21.8316 50.8113 21.8316 50.8113 21.8316C50.8114 21.8316 50.8114 21.8316 50.8115 21.8316C50.8115 21.8316 50.8116 21.8316 50.8116 21.8316C50.8117 21.8316 50.8117 21.8316 50.8117 21.8316C50.8118 21.8316 50.8118 21.8316 50.8119 21.8316C50.8119 21.8316 50.812 21.8316 50.812 21.8316C50.8121 21.8316 50.8121 21.8316 50.8121 21.8316C50.8122 21.8316 50.8122 21.8316 50.8123 21.8316C50.8123 21.8316 50.8124 21.8316 50.8124 21.8316C50.8125 21.8316 50.8125 21.8316 50.8126 21.8316C50.8126 21.8316 50.8127 21.8316 50.8127 21.8316C50.8127 21.8316 50.8128 21.8316 50.8128 21.8316C50.8129 21.8316 50.8129 21.8316 50.813 21.8316C50.813 21.8316 50.8131 21.8316 50.8131 21.8316C50.8132 21.8316 50.8132 21.8316 50.8133 21.8316C50.8133 21.8316 50.8134 21.8316 50.8134 21.8316C50.8134 21.8316 50.8135 21.8316 50.8135 21.8316C50.8136 21.8316 50.8136 21.8316 50.8137 21.8316C50.8137 21.8316 50.8138 21.8316 50.8138 21.8316C50.8139 21.8316 50.8139 21.8316 50.814 21.8316C50.814 21.8316 50.8141 21.8316 50.8141 21.8316C50.8142 21.8316 50.8142 21.8316 50.8143 21.8316C50.8143 21.8316 50.8144 21.8316 50.8144 21.8316C50.8145 21.8316 50.8145 21.8316 50.8145 21.8316C50.8146 21.8316 50.8146 21.8316 50.8147 21.8316C50.8147 21.8316 50.8148 21.8316 50.8148 21.8316C50.8149 21.8316 50.8149 21.8316 50.815 21.8316C50.815 21.8316 50.8151 21.8316 50.8151 21.8316C50.8152 21.8316 50.8152 21.8316 50.8153 21.8316C50.8153 21.8316 50.8154 21.8316 50.8154 21.8316C50.8155 21.8316 50.8155 21.8316 50.8156 21.8316C50.8156 21.8316 50.8157 21.8316 50.8157 21.8316C50.8158 21.8316 50.8158 21.8316 50.8159 21.8316C50.8159 21.8316 50.816 21.8316 50.816 21.8316C50.8161 21.8316 50.8161 21.8316 50.8162 21.8316C50.8162 21.8316 50.8163 21.8316 50.8163 21.8316C50.8164 21.8316 50.8165 21.8316 50.8165 21.8316C50.8166 21.8316 50.8166 21.8316 50.8167 21.8316C50.8167 21.8316 50.8168 21.8316 50.8168 21.8316C50.8169 21.8316 50.8169 21.8316 50.817 21.8316C50.817 21.8316 50.8171 21.8316 50.8171 21.8316C50.8172 21.8316 50.8172 21.8316 50.8173 21.8316C50.8173 21.8316 50.8174 21.8316 50.8174 21.8316C50.8175 21.8316 50.8175 21.8316 50.8176 21.8316C50.8176 21.8316 50.8177 21.8316 50.8178 21.8316C50.8178 21.8316 50.8179 21.8316 50.8179 21.8316C50.818 21.8316 50.818 21.8316 50.8181 21.8316C50.8181 21.8316 50.8182 21.8316 50.8182 21.8316C50.8183 21.8316 50.8183 21.8316 50.8184 21.8316C50.8185 21.8316 50.8185 21.8316 50.8186 21.8316V20.4809ZM50.7909 20.4809C50.5031 20.4809 50.2229 20.2799 50.1231 20.009L48.8556 20.4759C49.1435 21.2573 49.9156 21.8316 50.7909 21.8316V20.4809ZM50.1218 20.0053L45.9681 8.92886L44.7033 9.40315L48.857 20.4796L50.1218 20.0053ZM45.9661 8.92355C45.8212 8.54675 46.0141 8.15164 46.3597 8.03201L45.9178 6.75554C44.8235 7.13435 44.2965 8.34533 44.7053 9.40846L45.9661 8.92355ZM46.3812 8.02415C46.7412 7.88571 47.133 8.05545 47.2806 8.43927L48.5414 7.95436C48.1352 6.89824 46.9763 6.34802 45.8963 6.7634L46.3812 8.02415ZM47.2789 8.43471L50.1864 16.1605L51.4507 15.6847L48.5431 7.95893L47.2789 8.43471ZM51.4514 16.1585L54.3313 8.43272L53.0656 7.96091L50.1857 15.6867L51.4514 16.1585ZM54.3288 8.43927C54.4764 8.05545 54.8683 7.88571 55.2282 8.02415L55.7131 6.7634C54.6331 6.34802 53.4743 6.89824 53.0681 7.95436L54.3288 8.43927ZM60.997 4.12623L61.4746 3.64865L60.997 4.12623ZM60.997 2.18785L60.5194 1.71027L60.5194 1.71027L60.997 2.18785ZM62.9354 2.18785L63.4129 1.71027L63.4129 1.71027L62.9354 2.18785ZM61.9662 20.5085C61.5638 20.5085 61.257 20.2017 61.257 19.7994H59.9062C59.9062 20.9477 60.8178 21.8593 61.9662 21.8593V20.5085ZM61.257 19.7994V8.63987H59.9062V19.7994H61.257ZM61.257 8.63987C61.257 8.2741 61.5549 7.9584 61.9662 7.9584V6.60762C60.8267 6.60762 59.9062 7.51033 59.9062 8.63987H61.257ZM61.9662 7.9584C62.3408 7.9584 62.6476 8.26522 62.6476 8.63987H63.9984C63.9984 7.51921 63.0868 6.60762 61.9662 6.60762V7.9584ZM62.6476 8.63987V19.7994H63.9984V8.63987H62.6476ZM62.6476 19.7994C62.6476 20.2107 62.3319 20.5085 61.9662 20.5085V21.8593C63.0957 21.8593 63.9984 20.9388 63.9984 19.7994H62.6476ZM61.9662 3.83851C61.7696 3.83851 61.5864 3.76054 61.4746 3.64865L60.5194 4.6038C60.906 4.99036 61.4427 5.18929 61.9662 5.18929V3.83851ZM61.4746 3.64865C61.3381 3.51218 61.257 3.31914 61.257 3.15704H59.9062C59.9062 3.7149 60.1574 4.24183 60.5194 4.6038L61.4746 3.64865ZM61.257 3.15704C61.257 2.99493 61.3381 2.80189 61.4746 2.66542L60.5194 1.71027C60.1574 2.07225 59.9062 2.59917 59.9062 3.15704H61.257ZM61.4746 2.66542C61.611 2.52896 61.8041 2.44787 61.9662 2.44787V1.09709C61.4083 1.09709 60.8814 1.3483 60.5194 1.71027L61.4746 2.66542ZM61.9662 2.44787C62.1283 2.44787 62.3213 2.52896 62.4578 2.66542L63.4129 1.71027C63.051 1.3483 62.524 1.09709 61.9662 1.09709V2.44787ZM62.4578 2.66542C62.5697 2.77731 62.6476 2.96049 62.6476 3.15704H63.9984C63.9984 2.63361 63.7995 2.09683 63.4129 1.71027L62.4578 2.66542ZM62.6476 3.15704C62.6476 3.35358 62.5697 3.53677 62.4578 3.64865L63.4129 4.6038C63.7995 4.21725 63.9984 3.68046 63.9984 3.15704H62.6476ZM62.4578 3.64865C62.3459 3.76054 62.1627 3.83851 61.9662 3.83851V5.18929C62.4896 5.18929 63.0264 4.99036 63.4129 4.6038L62.4578 3.64865ZM74.9388 14.2058L74.4042 13.7931L74.0856 14.2058L74.4042 14.6185L74.9388 14.2058ZM78.594 18.941L78.0594 19.3537L78.0596 19.3539L78.594 18.941ZM78.3448 20.8516L77.9476 20.3054L77.9388 20.3118L77.9302 20.3185L78.3448 20.8516ZM76.4341 20.6301L75.9002 21.0438L75.9076 21.0533L75.9153 21.0625L76.4341 20.6301ZM73.1943 16.4488L73.7281 16.0351L73.1943 15.3461L72.6604 16.0351L73.1943 16.4488ZM69.9544 20.6301L70.4733 21.0625L70.4809 21.0533L70.4883 21.0438L69.9544 20.6301ZM68.0437 20.8516L68.4584 20.3185L68.4498 20.3118L68.441 20.3054L68.0437 20.8516ZM67.7945 18.941L68.3289 19.3539L68.3291 19.3537L67.7945 18.941ZM71.4497 14.2058L71.9844 14.6185L72.3029 14.2058L71.9844 13.7931L71.4497 14.2058ZM67.7945 9.47061L68.3291 9.05791L68.3289 9.05764L67.7945 9.47061ZM68.0437 7.53223L68.4567 8.06666L68.4627 8.06199L68.4687 8.05718L68.0437 7.53223ZM69.9544 7.78145L69.42 8.19442L69.4205 8.19512L69.9544 7.78145ZM73.1943 11.9628L72.6604 12.3765L73.1943 13.0655L73.7281 12.3765L73.1943 11.9628ZM76.4341 7.78145L76.968 8.19512L76.9686 8.19442L76.4341 7.78145ZM78.3448 7.53223L77.9199 8.05718L77.9258 8.06199L77.9318 8.06666L78.3448 7.53223ZM78.594 9.47061L78.0596 9.05764L78.0594 9.05791L78.594 9.47061ZM74.4042 14.6185L78.0594 19.3537L79.1287 18.5283L75.4734 13.7931L74.4042 14.6185ZM78.0596 19.3539C78.3077 19.675 78.2356 20.096 77.9476 20.3054L78.7421 21.3979C79.6724 20.7212 79.8218 19.4253 79.1285 18.528L78.0596 19.3539ZM77.9302 20.3185C77.7774 20.4373 77.6427 20.4809 77.5141 20.4809V21.8316C77.9947 21.8316 78.4138 21.6536 78.7595 21.3848L77.9302 20.3185ZM77.5141 20.4809C77.3167 20.4809 77.1133 20.3901 76.953 20.1977L75.9153 21.0625C76.3088 21.5347 76.8807 21.8316 77.5141 21.8316V20.4809ZM76.968 20.2164L73.7281 16.0351L72.6604 16.8624L75.9002 21.0438L76.968 20.2164ZM72.6604 16.0351L69.4205 20.2164L70.4883 21.0438L73.7281 16.8624L72.6604 16.0351ZM69.4356 20.1977C69.2753 20.3901 69.0718 20.4809 68.8745 20.4809V21.8316C69.5079 21.8316 70.0797 21.5347 70.4733 21.0625L69.4356 20.1977ZM68.8745 20.4809C68.7458 20.4809 68.6111 20.4373 68.4584 20.3185L67.6291 21.3848C67.9747 21.6536 68.3939 21.8316 68.8745 21.8316V20.4809ZM68.441 20.3054C68.1529 20.096 68.0808 19.675 68.3289 19.3539L67.2601 18.528C66.5667 19.4253 66.7161 20.7212 67.6465 21.3979L68.441 20.3054ZM68.3291 19.3537L71.9844 14.6185L70.9151 13.7931L67.2599 18.5283L68.3291 19.3537ZM71.9844 13.7931L68.3291 9.05791L67.2599 9.88331L70.9151 14.6185L71.9844 13.7931ZM68.3289 9.05764C68.0866 8.74409 68.1421 8.30972 68.4567 8.06666L67.6308 6.9978C66.7269 7.69624 66.5609 8.97871 67.2601 9.88357L68.3289 9.05764ZM68.4687 8.05718C68.7426 7.83542 69.1706 7.87169 69.42 8.19442L70.4888 7.36848C69.7967 6.47281 68.5079 6.28754 67.6188 7.00729L68.4687 8.05718ZM69.4205 8.19512L72.6604 12.3765L73.7281 11.5491L70.4883 7.36778L69.4205 8.19512ZM73.7281 12.3765L76.968 8.19512L75.9002 7.36778L72.6604 11.5491L73.7281 12.3765ZM76.9686 8.19442C77.2179 7.87169 77.6459 7.83542 77.9199 8.05718L78.7698 7.00729C77.8807 6.28754 76.5918 6.47281 75.8997 7.36848L76.9686 8.19442ZM77.9318 8.06666C78.2464 8.30972 78.3019 8.7441 78.0596 9.05764L79.1285 9.88357C79.8277 8.97871 79.6616 7.69624 78.7578 6.9978L77.9318 8.06666ZM78.0594 9.05791L74.4042 13.7931L75.4734 14.6185L79.1287 9.88331L78.0594 9.05791ZM85.7998 19.8548L86.2091 19.3175L85.1244 18.4911V19.8548H85.7998ZM90.0088 20.5916C88.5816 20.5916 87.2571 20.1161 86.2091 19.3175L85.3904 20.392C86.6684 21.3657 88.2792 21.9424 90.0088 21.9424V20.5916ZM85.1244 19.8548V26.7499H86.4752V19.8548H85.1244ZM85.1244 26.7499C85.1244 27.1245 84.8176 27.4313 84.4429 27.4313V28.7821C85.5636 28.7821 86.4752 27.8705 86.4752 26.7499H85.1244ZM84.4429 27.4313C84.0316 27.4313 83.7337 27.1156 83.7337 26.7499H82.383C82.383 27.8794 83.3035 28.7821 84.4429 28.7821V27.4313ZM83.7337 26.7499V14.3442H82.383V26.7499H83.7337ZM83.7337 14.3442V14.3165H82.383V14.3442H83.7337ZM83.7337 14.3165C83.7337 10.8682 86.5605 8.04148 90.0088 8.04148V6.69069C85.8144 6.69069 82.383 10.1222 82.383 14.3165H83.7337ZM90.0088 8.04148C93.4831 8.04148 96.2839 10.8664 96.2839 14.3165H97.6347C97.6347 10.1239 94.2326 6.69069 90.0088 6.69069V8.04148ZM96.2839 14.3165C96.2839 17.7926 93.4849 20.5916 90.0088 20.5916V21.9424C94.2309 21.9424 97.6347 18.5386 97.6347 14.3165H96.2839ZM90.0088 9.43211C87.3098 9.43211 85.1244 11.6175 85.1244 14.3165H86.4752C86.4752 12.3635 88.0558 10.7829 90.0088 10.7829V9.43211ZM85.1244 14.3165V14.3442H86.4752V14.3165H85.1244ZM85.1244 14.3442C85.1244 17.0185 87.3127 19.201 90.0088 19.201V17.8502C88.0529 17.8502 86.4752 16.2667 86.4752 14.3442H85.1244ZM90.0088 19.201C92.7079 19.201 94.8933 17.0156 94.8933 14.3165H93.5425C93.5425 16.2696 91.9619 17.8502 90.0088 17.8502V19.201ZM94.8933 14.3165C94.8933 11.6481 92.7108 9.43211 90.0088 9.43211V10.7829C91.959 10.7829 93.5425 12.3883 93.5425 14.3165H94.8933ZM107.997 7.9584C108.408 7.9584 108.706 8.2741 108.706 8.63987H110.057C110.057 7.51033 109.136 6.60762 107.997 6.60762V7.9584ZM108.706 8.63987C108.706 9.02334 108.39 9.34904 107.997 9.34904V10.6998C109.154 10.6998 110.057 9.75173 110.057 8.63987H108.706ZM107.997 9.34904C105.298 9.34904 103.112 11.5344 103.112 14.2335H104.463C104.463 12.2804 106.044 10.6998 107.997 10.6998V9.34904ZM103.112 14.2335V19.7994H104.463V14.2335H103.112ZM103.112 19.7994C103.112 20.1918 102.788 20.5085 102.431 20.5085V21.8593C103.569 21.8593 104.463 20.9022 104.463 19.7994H103.112ZM102.431 20.5085C102.037 20.5085 101.722 20.1828 101.722 19.7994H100.371C100.371 20.9112 101.274 21.8593 102.431 21.8593V20.5085ZM101.722 19.7994V14.2335H100.371V19.7994H101.722ZM101.722 14.2335C101.722 10.7592 104.547 7.9584 107.997 7.9584V6.60762C103.804 6.60762 100.371 10.0097 100.371 14.2335H101.722ZM118.737 20.4809C115.288 20.4809 112.462 17.6541 112.462 14.2058H111.111C111.111 18.4002 114.542 21.8316 118.737 21.8316V20.4809ZM112.462 14.2058C112.462 10.7315 115.287 7.93071 118.737 7.93071V6.57993C114.544 6.57993 111.111 9.98196 111.111 14.2058H112.462ZM118.737 7.93071C122.213 7.93071 125.012 10.7297 125.012 14.2058H126.363C126.363 9.98371 122.959 6.57993 118.737 6.57993V7.93071ZM125.012 14.2058C125.012 17.6559 122.211 20.4809 118.737 20.4809V21.8316C122.961 21.8316 126.363 18.3984 126.363 14.2058H125.012ZM118.737 9.32135C116.038 9.32135 113.852 11.5067 113.852 14.2058H115.203C115.203 12.2527 116.784 10.6721 118.737 10.6721V9.32135ZM113.852 14.2058C113.852 16.8743 116.035 19.0902 118.737 19.0902V17.7394C116.787 17.7394 115.203 16.134 115.203 14.2058H113.852ZM118.737 19.0902C121.439 19.0902 123.621 16.8743 123.621 14.2058H122.27C122.27 16.134 120.687 17.7394 118.737 17.7394V19.0902ZM123.621 14.2058C123.621 11.5067 121.436 9.32135 118.737 9.32135V10.6721C120.69 10.6721 122.27 12.2527 122.27 14.2058H123.621Z" fill="#475467" mask="url(#path-1-outside-1_138_1054)"/>
<rect x="2.70117" y="0.832031" width="4.39005" height="4.39005" rx="2.19503" fill="#3EDBFE"/>
<path d="M3.71484 28.8604C23.5921 34.9764 75.7344 43.5388 125.286 28.8604" stroke="#3EDBFE" stroke-width="2.02618" stroke-linecap="square"/>
</svg>
